SplineFontDB: 3.0
FontName: Oltartkhica-Regular
FullName: Oltartkhica Regular
FamilyName: Oltartkhica
Weight: Regular
Copyright: Copyright (c) 2014-2011, John Quijada, compiled by Demian Terentev
FontLog: "Oltartkhica is a cheap font for Ithkuil writing system.+AAoACgAA-Characters and glyphs by John Quijada.+AAoA-Font compiled by Demian Terentev."
Version: 042.001
ItalicAngle: 0
UnderlinePosition: -100
UnderlineWidth: 50
Ascent: 800
Descent: 200
InvalidEm: 0
LayerCount: 2
Layer: 0 0 "Back" 1
Layer: 1 0 "Fore" 0
XUID: [1021 589 -1086611993 14231949]
StyleMap: 0x0000
FSType: 0
OS2Version: 0
OS2_WeightWidthSlopeOnly: 0
OS2_UseTypoMetrics: 1
CreationTime: 1470397854
ModificationTime: 1470702182
PfmFamily: 17
TTFWeight: 400
TTFWidth: 5
LineGap: 90
VLineGap: 0
OS2TypoAscent: 0
OS2TypoAOffset: 1
OS2TypoDescent: 0
OS2TypoDOffset: 1
OS2TypoLinegap: 90
OS2WinAscent: 0
OS2WinAOffset: 1
OS2WinDescent: 0
OS2WinDOffset: 1
HheadAscent: 0
HheadAOffset: 1
HheadDescent: 0
HheadDOffset: 1
OS2Vendor: 'PfEd'
MarkAttachClasses: 1
DEI: 91125
LangName: 1033
Encoding: UnicodeBmp
UnicodeInterp: none
NameList: AGL For New Fonts
DisplaySize: -48
AntiAlias: 1
FitToEm: 0
WinInfo: 57800 17 7
BeginPrivate: 0
EndPrivate
Grid
346.999969482 1300 m 0
 346.999969482 -700 l 1024
247.999969482 1300 m 0
 247.999969482 -700 l 1024
320 1300 m 0
 320 -700 l 1024
498.500015259 1300 m 0
 498.500015259 -700 l 1024
150.500015259 1300 m 0
 150.500015259 -700 l 1024
843.500061035 1300 m 0
 843.500061035 -700 l 1024
-1000 399 m 0
 2000 399 l 1024
498.500015259 1300 m 4
 498.500015259 -700 l 1028
EndSplineSet
TeXData: 1 0 0 346030 173015 115343 0 1048576 115343 783286 444596 497025 792723 393216 433062 380633 303038 157286 324010 404750 52429 2506097 1059062 262144
BeginChars: 65536 562

StartChar: uniE000
Encoding: 57344 57344 0
Width: 1000
VWidth: 0
LayerCount: 2
Fore
SplineSet
843.5 802 m 1
 646 802 l 29
 150.500015259 396 l 1
 649 0 l 25
 843.500061035 0 l 1
 349 399 l 25
 843.5 802 l 1
EndSplineSet
Validated: 9
EndChar

StartChar: uniE001
Encoding: 57345 57345 1
Width: 1000
VWidth: 0
Flags: W
HStem: 399 105<495.5 725>
LayerCount: 2
Fore
SplineSet
841.5 803 m 1
 659 804 l 1
 157 399 l 1
 725 399 l 1
 721 5 l 1
 843.5 105 l 1
 843.5 513 l 1
 495.5 504 l 5
 841.5 803 l 1
EndSplineSet
Validated: 9
EndChar

StartChar: uniE002
Encoding: 57346 57346 3
Width: 1000
VWidth: 0
Flags: W
LayerCount: 2
Fore
SplineSet
843.5 803 m 1
 650 801 l 1
 158 399 l 1
 578 399 l 1
 154 0 l 1
 332 8 l 5
 843.5 507 l 1
 476.5 504 l 1
 843.5 803 l 1
EndSplineSet
Validated: 9
EndChar

StartChar: uniE003
Encoding: 57347 57347 4
Width: 1000
VWidth: 0
Flags: W
LayerCount: 2
Fore
SplineSet
570 804 m 1
 440 804 l 1
 151 399 l 1
 493 399 l 1
 704 0 l 1
 843.500061035 0 l 1
 581 504 l 5
 358 503 l 1
 570 804 l 1
EndSplineSet
Validated: 9
EndChar

StartChar: uniE004
Encoding: 57348 57348 5
Width: 1000
VWidth: 0
Flags: W
LayerCount: 2
Fore
SplineSet
843.5 803 m 1
 670 801 l 5
 389 573 l 1
 654 399 l 1
 154 0 l 1
 342 0 l 1
 843.5 398 l 1
 566 580 l 1
 843.5 803 l 1
EndSplineSet
Validated: 9
EndChar

StartChar: uniE005
Encoding: 57349 57349 6
Width: 1000
VWidth: 0
Flags: W
LayerCount: 2
Fore
SplineSet
496 614 m 1
 657 801 l 1
 500 802 l 1
 305 607 l 1
 408.5 511 l 1
 157 511 l 1
 666 1 l 1
 843.5 0 l 1
 443 399 l 5
 693 399 l 1
 496 614 l 1
EndSplineSet
Validated: 9
EndChar

StartChar: uniE006
Encoding: 57350 57350 7
Width: 1000
VWidth: 0
Flags: HMW
LayerCount: 2
Fore
SplineSet
659 805 m 1
 501 804 l 1
 333 613 l 1
 499 395 l 1
 498 -1 l 1
 630 102 l 5
 636 399 l 1
 496 614 l 1
 659 805 l 1
EndSplineSet
Validated: 9
EndChar

StartChar: uniE007
Encoding: 57351 57351 8
Width: 1000
VWidth: 0
Flags: W
LayerCount: 2
Fore
SplineSet
296 802 m 1
 151.5 802 l 1
 147.5 340 l 1
 626 0 l 5
 840 0 l 5
 293.5 400 l 1
 296 802 l 1
EndSplineSet
Validated: 9
EndChar

StartChar: uniE008
Encoding: 57352 57352 9
Width: 1000
VWidth: 0
Flags: W
HStem: 0 21G<684.353 843.5>
LayerCount: 2
Fore
SplineSet
331 399 m 1
 490 399 l 1
 843.500061035 0 l 1
 703 0 l 1
 331 399 l 1
331 399 m 1
 659 801 l 5
 500 802 l 5
 150.5 396 l 1
 331 399 l 1
EndSplineSet
Validated: 5
EndChar

StartChar: uniE009
Encoding: 57353 57353 10
Width: 1000
VWidth: 0
Flags: MW
LayerCount: 2
Fore
SplineSet
497 399 m 1
 336 399 l 1
 701 0 l 1
 839 0 l 1
 497 399 l 1
497 798 m 1
 497 399 l 1049
497 798 m 1
 612.5 675 l 25
 612.5 399 l 1
 497 399 l 25
 497 798 l 1
EndSplineSet
Validated: 11
EndChar

StartChar: uniE00A
Encoding: 57354 57354 11
Width: 1000
VWidth: 0
Flags: W
VStem: 391 107.5<399 675>
LayerCount: 2
Fore
SplineSet
578 449 m 1
 498.5 399 l 1
 726 0 l 1
 840 0 l 1
 578 449 l 1
391 798 m 29
 391 321 l 1053
391 798 m 29
 498.5 675 l 25
 498.5 399 l 25
 391 321 l 29
 391 798 l 29
EndSplineSet
Validated: 11
EndChar

StartChar: uniE00B
Encoding: 57355 57355 12
Width: 1000
VWidth: 0
Flags: W
LayerCount: 2
Fore
SplineSet
843.5 803 m 1
 671 802 l 1
 417 581 l 1
 584 399 l 1
 727 399 l 1
 726 102 l 1
 843.5 0 l 1
 843.5 201.5234375 846.5 360.469726562 846.5 498 c 4
 499.5 493 l 1
 843.5 803 l 1
EndSplineSet
Validated: 9
EndChar

StartChar: uniE00C
Encoding: 57356 57356 13
Width: 1000
VWidth: 0
Flags: W
LayerCount: 2
Fore
SplineSet
676 801 m 1
 502.5 800 l 1
 150.5 402 l 1
 711 399 l 5
 717 99 l 5
 842 0 l 1
 840 297 l 0
 599 511 l 1
 414.5 507 l 1
 676 801 l 1
EndSplineSet
Validated: 9
EndChar

StartChar: uniE00D
Encoding: 57357 57357 14
Width: 1000
VWidth: 0
Flags: W
LayerCount: 2
Fore
SplineSet
843.5 801 m 1
 670 801 l 1
 158 399 l 1
 751 400 l 1
 316 1 l 1
 497 1 l 1
 840 319 l 0
 656 505 l 1
 492 504 l 1
 843.5 801 l 1
EndSplineSet
Validated: 9
EndChar

StartChar: uniE00E
Encoding: 57358 57358 15
Width: 1000
VWidth: 0
Flags: HMW
LayerCount: 2
Fore
SplineSet
665.5 803 m 1
 500 801 l 5
 246 574 l 5
 494 399 l 5
 729 399 l 1
 728 132 l 1
 843.500061035 0 l 1
 843.500061035 289 l 1
 626 513 l 1
 348.5 510 l 5
 665.5 803 l 1
EndSplineSet
EndChar

StartChar: uniE00F
Encoding: 57359 57359 16
Width: 1000
VWidth: 0
Flags: HMW
LayerCount: 2
Fore
SplineSet
843.5 803 m 1
 670 801 l 1
 168 399 l 1
 727 399 l 1
 728 109 l 1
 609 7 l 1
 606 302 l 1
 727 399 l 1
 843.5 508 l 0
 492 504 l 5
 843.5 803 l 1
EndSplineSet
Validated: 5
EndChar

StartChar: uniE010
Encoding: 57360 57360 17
Width: 1000
VWidth: 0
Flags: W
LayerCount: 2
Fore
SplineSet
643 565 m 1
 844 803 l 1
 655 803 l 1
 442 568 l 1
 555.5 484 l 1
 364 484 l 1
 150.5 0 l 1
 292 0 l 1
 442 349 l 1
 843.5 351 l 5
 643 565 l 1
EndSplineSet
Validated: 9
EndChar

StartChar: uniE011
Encoding: 57361 57361 18
Width: 1000
VWidth: 0
Flags: W
HStem: 399 115<413 583> 399 107<413 583>
LayerCount: 2
Fore
SplineSet
667 804 m 1x40
 498.5 805 l 1
 244 580 l 1
 413 399 l 1
 583 399 l 1
 734 0 l 1
 843.5 0 l 1
 658 514 l 0x80
 332 506 l 5
 667 804 l 1x40
EndSplineSet
Validated: 9
EndChar

StartChar: uniE012
Encoding: 57362 57362 19
Width: 1000
VWidth: 0
Flags: W
LayerCount: 2
Fore
SplineSet
649 800 m 1
 495.5 798 l 1
 150.5 342 l 1
 464 339 l 1
 566 464 l 5
 563 -2 l 1
 683 112 l 1
 683 595 l 0
 566 464 l 5
 394.5 467 l 1
 649 800 l 1
EndSplineSet
Validated: 5
EndChar

StartChar: uniE013
Encoding: 57363 57363 20
Width: 1000
VWidth: 0
Flags: W
LayerCount: 2
Fore
SplineSet
485 623 m 1
 683.5 803 l 1
 510 801 l 1
 305 617 l 1
 530 399 l 1
 391 398 l 1
 516 199 l 5
 334 0 l 1
 498.5 0 l 1
 665.33203125 203 l 5
 530 399 l 1
 715 398 l 1
 485 623 l 1
EndSplineSet
Validated: 5
EndChar

StartChar: uniE014
Encoding: 57364 57364 21
Width: 1000
VWidth: 0
Flags: W
LayerCount: 2
Fore
SplineSet
486 600 m 5
 684.5 801 l 1
 511 799 l 1
 306 595 l 1
 525 397 l 1
 686 396 l 1
 339 -2 l 1
 498.5 0 l 1
 840 398 l 1
 686 396 l 1
 486 600 l 5
EndSplineSet
Validated: 5
EndChar

StartChar: uniE015
Encoding: 57365 57365 22
Width: 1000
VWidth: 0
Flags: W
LayerCount: 2
Fore
SplineSet
486 600 m 5
 684.5 801 l 1
 511 799 l 1
 316 595 l 1
 495 398 l 1
 349 401 l 1
 696 0 l 1
 836 0 l 1
 495 398 l 1
 656 400 l 1
 486 600 l 5
EndSplineSet
Validated: 5
EndChar

StartChar: uniE016
Encoding: 57366 57366 23
Width: 1000
VWidth: 0
Flags: W
LayerCount: 2
Fore
SplineSet
486 588 m 1
 684.5 801 l 1
 511 799 l 1
 316 585 l 1
 495 399 l 1
 374 399 l 5
 376 95 l 1
 498.5 2 l 1
 495 399 l 1
 656 400 l 1
 486 588 l 1
EndSplineSet
Validated: 5
EndChar

StartChar: uniE017
Encoding: 57367 57367 24
Width: 1000
VWidth: 0
Flags: W
LayerCount: 2
Fore
SplineSet
486 607 m 1
 684.5 801 l 1
 511 799 l 1
 306 602 l 1
 495 401 l 1
 351 401 l 5
 154.5 0 l 1
 305 0 l 1
 495 404 l 1
 656 400 l 1
 486 607 l 1
EndSplineSet
Validated: 5
EndChar

StartChar: uniE031
Encoding: 57393 57393 48
Width: 1000
VWidth: 0
Flags: W
HStem: 200 105<562 727>
VStem: 727 116.5<305 704>
LayerCount: 2
Fore
SplineSet
843.5 -99 m 1
 670 -97 l 1
 298 305 l 1
 727 305 l 1
 733 803 l 1
 843.5 704 l 1
 843.5 206 l 0
 562 200 l 1
 843.5 -99 l 1
EndSplineSet
Validated: 1
EndChar

StartChar: uniE032
Encoding: 57394 57394 49
Width: 1000
VWidth: 0
Flags: W
LayerCount: 2
Fore
SplineSet
843.5 803 m 1
 671 807 l 1
 417 581 l 1
 584 399 l 1
 737 399 l 1
 423 0 l 1
 571 0 l 1
 808 316 l 5
 660 498 l 1
 499.5 493 l 1
 843.5 803 l 1
EndSplineSet
Validated: 9
EndChar

StartChar: uniE033
Encoding: 57395 57395 50
Width: 1000
VWidth: 0
Flags: W
HStem: 0 21G<534.704 667> 309 96<475 583>
LayerCount: 2
Fore
SplineSet
667 0 m 1
 547 0 l 1
 298 405 l 1
 583 405 l 1
 734 804 l 5
 843.5 804 l 1
 658 309 l 0
 475 309 l 1
 667 0 l 1
EndSplineSet
Validated: 1
EndChar

StartChar: uniE034
Encoding: 57396 57396 51
Width: 1000
VWidth: 0
Flags: W
HStem: 0 21G<670 821.397>
LayerCount: 2
Fore
SplineSet
843.5 0 m 5
 670 2 l 5
 389 230 l 5
 584 404 l 5
 244 803 l 5
 412 803 l 5
 769 404 l 4
 586 233 l 5
 843.5 0 l 5
EndSplineSet
Validated: 1
EndChar

StartChar: uniE035
Encoding: 57397 57397 52
Width: 1000
VWidth: 0
Flags: W
HStem: 0 21G<670 821.952>
LayerCount: 2
Fore
SplineSet
586 239 m 5
 843.5 0 l 5
 670 2 l 5
 385 236 l 5
 498.5 320 l 5
 307 320 l 5
 706 803 l 5
 843.5 803 l 5
 580 454 l 5
 763 449 l 5
 586 239 l 5
EndSplineSet
Validated: 1
EndChar

StartChar: uniE036
Encoding: 57398 57398 53
Width: 1000
VWidth: 0
Flags: W
VStem: 652 123<309 525.5> 658 105<452.5 708>
LayerCount: 2
Fore
SplineSet
778 -93 m 1x80
 649 -96 l 1
 475 111 l 5
 652 309 l 1x80
 658 804 l 1
 763 708 l 1x40
 775 270 l 0
 625 114 l 1
 778 -93 l 1x80
EndSplineSet
Validated: 1
EndChar

StartChar: uniE037
Encoding: 57399 57399 54
Width: 1000
VWidth: 0
Flags: W
VStem: 493 132<215.8 402> 508 119.5<3 189.2>
LayerCount: 2
Back
SplineSet
627.5 0 m 1x40
 503 0 l 1x40
 498 402 l 5
 778 801 l 1
 922 801 l 1
 625 402 l 1x80
 627.5 0 l 1x40
EndSplineSet
Fore
SplineSet
627.5 0 m 1x40
 503 0 l 1x40
 498 402 l 5
 778 801 l 1
 922 801 l 1
 625 402 l 1x80
 627.5 0 l 1x40
EndSplineSet
Validated: 1
EndChar

StartChar: uniE038
Encoding: 57400 57400 55
Width: 1000
VWidth: 0
Flags: W
HStem: 783 21G<684.353 843.5>
LayerCount: 2
Fore
SplineSet
331 405 m 1
 490 405 l 1
 843.5 804 l 1
 703 804 l 1
 331 405 l 1
331 405 m 1
 703 6 l 1
 544 0 l 1
 150.5 408 l 1
 331 405 l 1
EndSplineSet
Validated: 5
EndChar

StartChar: uniE039
Encoding: 57401 57401 56
Width: 1000
VWidth: 0
Flags: W
LayerCount: 2
Fore
SplineSet
393 399 m 1
 246 399 l 5
 673 798 l 5
 811 798 l 1
 393 399 l 1
393 0 m 1
 393 399 l 1049
393 0 m 1
 498.5 123 l 25
 498.5 399 l 1
 393 399 l 25
 393 0 l 1
EndSplineSet
Validated: 11
EndChar

StartChar: uniE03A
Encoding: 57402 57402 57
Width: 1000
VWidth: 0
Flags: W
VStem: 393 105.5<123 399>
LayerCount: 2
Fore
SplineSet
574 351 m 1
 498.5 399 l 1
 697 798 l 5
 811 798 l 1
 574 351 l 1
393 0 m 25
 393 477 l 1049
393 0 m 25
 498.5 123 l 25
 498.5 399 l 25
 393 477 l 25
 393 0 l 25
EndSplineSet
Validated: 11
EndChar

StartChar: uniE03B
Encoding: 57403 57403 58
Width: 1000
VWidth: 0
Flags: W
HStem: 0 21G<648.522 843.5> 314 94<584 727>
VStem: 727 119.5<408 705>
LayerCount: 2
Fore
SplineSet
843.5 4 m 1
 671 0 l 1
 417 226 l 1
 584 408 l 1
 727 408 l 1
 726 705 l 5
 843.5 807 l 1
 843.5 605.4765625 846.5 446.530273438 846.5 309 c 0
 499.5 314 l 1
 843.5 4 l 1
EndSplineSet
Validated: 1
EndChar

StartChar: uniE03C
Encoding: 57404 57404 59
Width: 1000
VWidth: 0
Flags: W
HStem: 0 21G<522.5 677.171> 299 108<414.5 569>
VStem: 647 122<509 707>
LayerCount: 2
Fore
SplineSet
696 0 m 1
 522.5 2 l 1
 150.5 404 l 1
 647 407 l 1
 647 707 l 5
 767 806 l 1
 769 509 l 0
 569 305 l 1
 414.5 299 l 1
 696 0 l 1
EndSplineSet
Validated: 1
EndChar

StartChar: uniE03D
Encoding: 57405 57405 60
Width: 1000
VWidth: 0
Flags: W
HStem: 0 21G<670 824.671> 299 105<562 656>
LayerCount: 2
Fore
SplineSet
843.5 0 m 1
 670 2 l 1
 298 404 l 1
 731 404 l 1
 244 803 l 1
 455 803 l 1
 800 499 l 4
 656 298 l 1
 562 299 l 1
 843.5 0 l 1
EndSplineSet
Validated: 1
EndChar

StartChar: uniE03E
Encoding: 57406 57406 61
Width: 1000
VWidth: 0
Flags: W
HStem: 293 111<614 699.75> 305 99<642.25 727>
LayerCount: 2
Fore
SplineSet
843.5 0 m 1x80
 670 2 l 1
 407 217 l 1
 498.5 293 l 1
 614 404 l 1x80
 727 404 l 1
 728 671 l 5
 843.5 803 l 1
 843.5 637 843.5 471 843.5 305 c 0x40
 498.5 293 l 1
 843.5 0 l 1x80
EndSplineSet
Validated: 5
EndChar

StartChar: uniE03F
Encoding: 57407 57407 62
Width: 1000
VWidth: 0
Flags: W
HStem: 197 105<562 727>
VStem: 605 123<399 701> 612 115<399 701>
LayerCount: 2
Fore
SplineSet
843.5 -102 m 1xa0
 670 -100 l 1
 298 302 l 1
 727 302 l 1xa0
 728 701 l 1
 605 803 l 5xc0
 612 399 l 1
 727 302 l 1
 843.5 203 l 0
 562 197 l 1
 843.5 -102 l 1xa0
EndSplineSet
Validated: 5
EndChar

StartChar: uniE040
Encoding: 57408 57408 63
Width: 1000
VWidth: 0
Flags: W
HStem: 0 21G<636.872 844> 319 135<442 555.5>
LayerCount: 2
Fore
SplineSet
643 238 m 1
 844 0 l 1
 655 0 l 1
 442 235 l 1
 555.5 319 l 1
 364 319 l 1
 150.5 803 l 1
 292 803 l 1
 442 454 l 5
 843.5 448 l 1
 643 238 l 1
EndSplineSet
Validated: 1
EndChar

StartChar: uniE041
Encoding: 57409 57409 64
Width: 1000
VWidth: 0
Flags: W
HStem: 0 21G<475.878 667> 291 115<433 583> 300 106<433 583>
LayerCount: 2
Fore
SplineSet
667 1 m 1xa0
 498.5 0 l 1
 244 225 l 5
 433 406 l 1
 583 406 l 1
 734 805 l 1
 843.5 805 l 1
 658 291 l 0xc0
 334 300 l 1
 667 1 l 1xa0
EndSplineSet
Validated: 1
EndChar

StartChar: uniE042
Encoding: 57410 57410 65
Width: 1000
VWidth: 0
Flags: W
HStem: 377 108<414.5 464>
VStem: 563 120<395.9 692> 566 127<380 565.1>
LayerCount: 2
Fore
SplineSet
696 78 m 1xa0
 522.5 80 l 1
 150.5 482 l 1
 464 485 l 1
 566 380 l 1xa0
 563 806 l 1
 683 692 l 1xc0
 693 269 l 4
 566 380 l 1
 414.5 377 l 1
 696 78 l 1xa0
EndSplineSet
Validated: 5
EndChar

StartChar: uniE043
Encoding: 57411 57411 66
Width: 1000
VWidth: 0
Flags: W
HStem: 0 21G<431 641.766>
LayerCount: 2
Fore
SplineSet
843.5 235 m 1
 623 0 l 1
 431 0 l 5
 656 235 l 1
 551 454 l 1
 391 455 l 1
 526 614 l 1
 334 803 l 1
 498.5 803 l 1
 705.33203125 620 l 1
 551 454 l 1
 695 457 l 1
 843.5 235 l 1
EndSplineSet
Validated: 5
EndChar

StartChar: uniE044
Encoding: 57412 57412 67
Width: 1000
VWidth: 0
Flags: W
LayerCount: 2
Fore
SplineSet
476 249 m 1
 754.5 -2 l 1
 581 0 l 1
 296 234 l 1
 495 455 l 1
 656 453 l 1
 339 801 l 1
 498.5 799 l 5
 800 453 l 1
 656 453 l 1
 476 249 l 1
EndSplineSet
Validated: 5
EndChar

StartChar: uniE045
Encoding: 57413 57413 68
Width: 1000
VWidth: 0
Flags: W
HStem: 0 21G<581 732.309>
LayerCount: 2
Fore
SplineSet
476 251 m 1
 754.5 0 l 1
 581 2 l 1
 296 236 l 1
 495 457 l 1
 349 460 l 1
 633 801 l 1
 773 801 l 5
 495 457 l 1
 656 455 l 1
 476 251 l 1
EndSplineSet
Validated: 5
EndChar

StartChar: uniE030
Encoding: 57392 57392 69
Width: 1000
VWidth: 0
Flags: W
LayerCount: 2
Fore
SplineSet
423 571 m 5
 670.5 807 l 1
 497 805 l 1
 236 571 l 1
 482.5 355 l 1
 650 355 l 1
 820.66796875 190 l 1
 605 0 l 1
 793.16796875 1 l 1
 1000 184 l 1
 815 355 l 1
 650 355 l 1
 423 571 l 5
EndSplineSet
Validated: 5
EndChar

StartChar: uniE046
Encoding: 57414 57414 70
Width: 1000
VWidth: 0
Flags: W
VStem: 386 112.5<365 708>
LayerCount: 2
Fore
SplineSet
476 158 m 1
 754.5 -93 l 1
 581 -91 l 1
 296 143 l 1
 495 364 l 1
 386 365 l 1
 386 708 l 1
 498.5 801 l 5
 495 364 l 1
 656 362 l 1
 476 158 l 1
EndSplineSet
Validated: 5
EndChar

StartChar: uniE047
Encoding: 57415 57415 71
Width: 1000
VWidth: 0
Flags: W
HStem: 0 21G<581 732.309>
LayerCount: 2
Fore
SplineSet
476 251 m 1
 754.5 0 l 1
 581 2 l 1
 296 236 l 1
 495 457 l 1
 349 460 l 1
 150.5 801 l 1
 305 801 l 5
 495 457 l 1
 656 455 l 1
 476 251 l 1
EndSplineSet
Validated: 5
EndChar

StartChar: uniE060
Encoding: 57440 57440 96
Width: 1000
VWidth: 0
LayerCount: 2
Fore
SplineSet
151 1 m 1
 298.5 1 l 25
 569.5 402 l 5
 420 402 l 5
 151 1 l 1
422 402 m 5
 569.5 402 l 29
 843.5 801 l 5
 691 801 l 5
 422 402 l 5
EndSplineSet
Validated: 5
EndChar

StartChar: uniE061
Encoding: 57441 57441 97
Width: 1000
VWidth: 0
Flags: W
HStem: 1 3<410.509 502.5>
LayerCount: 2
Fore
SplineSet
151 1 m 5
 502.5 4 l 5
 410.508789062 14.466796875 285 28 379.286132812 127 c 5
 569.5 399 l 5
 518.666666667 399 470.833007812 399 420 399 c 5
 151 1 l 5
422 399 m 5
 569.5 399 l 29
 840.5 801 l 1
 688 801 l 1
 422 399 l 5
EndSplineSet
Validated: 37
EndChar

StartChar: uniE063
Encoding: 57443 57443 99
Width: 1000
VWidth: 0
Flags: W
HStem: 1 3<410.509 502.5> 794 3<487 578.991>
LayerCount: 2
Fore
SplineSet
838.5 797 m 5
 487 794 l 5
 578.991210938 783.533203125 704.5 770 610.213867188 671 c 5
 420 399 l 5
 470.833007812 399 518.666992188 399 569.5 399 c 5
 838.5 797 l 5
151 1 m 1
 502.5 4 l 1
 410.508789062 14.466796875 285 28 379.286132812 127 c 1
 569.5 399 l 5
 518.666992188 399 470.833007812 399 420 399 c 5
 151 1 l 1
EndSplineSet
Validated: 37
EndChar

StartChar: uniE064
Encoding: 57444 57444 100
Width: 1000
VWidth: 0
Flags: W
LayerCount: 2
Fore
SplineSet
853.5 804 m 1
 706 804 l 25
 435 402 l 5
 585.5 402 l 5
 853.5 804 l 1
582.5 402 m 5
 435 402 l 29
 154 0 l 5
 306.5 0 l 5
 397.79296875 81.7578125 550.248046875 -2.376953125 263.5 -99 c 5
 381.666992188 -69.7021484375 675 -24 391.5 127 c 5
 582.5 402 l 5
EndSplineSet
Validated: 37
EndChar

StartChar: uniE066
Encoding: 57446 57446 102
Width: 1000
VWidth: 0
Flags: W
HStem: 794 3<487 578.991>
LayerCount: 2
Fore
SplineSet
573.5 399 m 5
 517.666992188 399 468.833007812 396 423 399 c 5
 573.5 399 l 5
570.5 399 m 5
 423 399 l 29
 144 0 l 1
 296.5 0 l 1
 387.79296875 81.7578125 540.248046875 -2.376953125 253.5 -99 c 1
 371.666992188 -69.7021484375 665 -24 381.5 127 c 1
 570.5 399 l 5
838.5 797 m 1
 487 794 l 1
 578.991210938 783.533203125 704.5 770 610.213867188 671 c 1
 420 399 l 1
 470.833007812 399 518.666992188 399 569.5 399 c 1
 838.5 797 l 1
EndSplineSet
Validated: 37
EndChar

StartChar: uniE080
Encoding: 57472 57472 128
Width: 1000
VWidth: 0
Flags: W
LayerCount: 2
Fore
SplineSet
236.5 -3 m 5
 384 -3 l 29
 655 399 l 5
 502.5 399 l 5
 236.5 -3 l 5
355 399 m 5
 502.5 399 l 29
 783.5 801 l 5
 631 801 l 5
 355 399 l 5
EndSplineSet
Validated: 5
EndChar

StartChar: uniE081
Encoding: 57473 57473 129
Width: 1000
VWidth: 0
Flags: W
HStem: 1 3<495.509 587.5>
LayerCount: 2
Fore
SplineSet
236 1 m 5
 587.5 4 l 5
 495.508789062 14.466796875 370 28 464.286132812 127 c 5
 654.5 399 l 5
 603.666992188 399 555.833007812 399 505 399 c 5
 236 1 l 5
507 399 m 5
 654.5 399 l 1053
355 399 m 1
 502.5 399 l 29
 783.5 801 l 1
 631 801 l 1
 355 399 l 1
EndSplineSet
Validated: 43
EndChar

StartChar: uniE083
Encoding: 57475 57475 131
Width: 1000
VWidth: 0
Flags: W
HStem: 1 3<495.509 587.5> 795 3<422 513.991>
LayerCount: 2
Fore
SplineSet
773.5 798 m 5
 422 795 l 5
 513.991210938 784.533203125 639.5 771 545.213867188 672 c 5
 355 400 l 5
 405.833007812 400 453.666992188 400 504.5 400 c 1
 773.5 798 l 5
507 400 m 25
 502.5 400 l 5
 355 400 l 1053
236 1 m 1
 587.5 4 l 1
 495.508789062 14.466796875 370 28 464.286132812 127 c 1
 654.5 399 l 1
 603.666992188 399 555.833007812 399 505 399 c 1
 236 1 l 1
EndSplineSet
Validated: 43
EndChar

StartChar: uniE084
Encoding: 57476 57476 132
Width: 1000
VWidth: 0
Flags: W
LayerCount: 2
Fore
SplineSet
499.5 401 m 5
 650 401 l 1029
647 401 m 5
 499.5 401 l 29
 218.5 -1 l 5
 371 -1 l 5
 462.29296875 80.7578125 614.748046875 -3.376953125 328 -100 c 5
 446.166992188 -70.7021484375 739.5 -25 456 126 c 5
 647 401 l 5
773.5 804 m 1
 626 804 l 25
 345 402 l 1
 495 402 l 1
 773.5 804 l 1
EndSplineSet
Validated: 43
EndChar

StartChar: uniE085
Encoding: 57477 57477 133
Width: 1000
VWidth: 0
Flags: W
LayerCount: 2
Fore
SplineSet
492.5 303 m 1
 342 303 l 1025
345 303 m 1
 492.5 303 l 25
 773.5 705 l 1
 621 705 l 1
 529.70703125 623.2421875 377.251953125 707.376953125 664 804 c 1
 545.833007812 774.702148438 252.5 729 536 578 c 1
 345 303 l 1
218.5 -100 m 5
 366 -100 l 29
 647 302 l 1
 497 302 l 1
 218.5 -100 l 5
EndSplineSet
Validated: 43
EndChar

StartChar: uniE086
Encoding: 57478 57478 134
Width: 1000
VWidth: 0
Flags: W
HStem: 795 3<412 503.991>
LayerCount: 2
Fore
SplineSet
763.5 798 m 1
 412 795 l 1
 503.991210938 784.533203125 629.5 771 535.213867188 672 c 1
 345 400 l 1
 395.833007812 400 443.666992188 400 494.5 400 c 5
 763.5 798 l 1
497 400 m 29
 492.5 400 l 5
 345 400 l 1049
495 399 m 1029
665 401 m 1029
662 401 m 5
 494.5 400 l 29
 233.5 -1 l 5
 386 -1 l 5
 477.29296875 80.7578125 629.748046875 -3.376953125 343 -100 c 5
 461.166992188 -70.7021484375 754.5 -25 471 126 c 5
 662 401 l 5
EndSplineSet
Validated: 43
EndChar

StartChar: uniE088
Encoding: 57480 57480 136
Width: 1000
VWidth: 0
Flags: W
LayerCount: 2
Fore
SplineSet
225 3 m 5
 372.5 3 l 29
 653.5 399 l 1
 501 399 l 1
 225 3 l 5
355 399 m 1
 502.5 399 l 1
 855 900 l 1
 702.5 900 l 1
 355 399 l 1
EndSplineSet
Validated: 5
EndChar

StartChar: uniE089
Encoding: 57481 57481 137
Width: 1000
VWidth: 0
Flags: W
HStem: -1 3<565.509 657.5>
LayerCount: 2
Fore
SplineSet
574.5 398 m 1029,0,-1
577 398 m 29,1,-1
 572.5 398 l 1029,2,-1
306 -1 m 5,3,-1
 657.5 2 l 5,4,-1
 565.508789062 12.466796875 440 26 534.286132812 125 c 5,7,-1
 724.5 397 l 5,8,-1
 673.666992188 397 625.833007812 397 575 397 c 5,11,-1
 306 -1 l 5,3,-1
425 397 m 1,12,-1
 474.166992188 397 523.333007812 397 572.5 397 c 1,15,-1
 925 900 l 1,16,-1
 772.5 900 l 1,17,-1
 425 397 l 1,12,-1
EndSplineSet
Validated: 43
EndChar

StartChar: uniE08A
Encoding: 57482 57482 138
Width: 1000
VWidth: 0
Flags: W
HStem: 891.287 3.74316<447.5 539.491>
LayerCount: 2
Fore
SplineSet
799 895.030273438 m 5
 447.5 891.287109375 l 5
 539.491210938 878.23046875 665 861.34765625 570.713867188 737.844726562 c 5
 350.5 398.525390625 l 5
 401.333007812 398.525390625 449.166992188 398.525390625 500 398.525390625 c 5
 799 895.030273438 l 5
498 398.525390625 m 5
 350.5 398.525390625 l 1053
502.5 398.525390625 m 1045
656 399 m 1025
651 399 m 1
 601.833007812 399 552.666992188 399 503.5 399 c 5
 219 -1 l 1
 371.5 -1 l 1
 651 399 l 1
EndSplineSet
Validated: 43
EndChar

StartChar: uniE08B
Encoding: 57483 57483 139
Width: 1000
VWidth: 0
Flags: W
HStem: -1 3<455.509 547.5> 891.287 3.74316<407.5 499.491>
LayerCount: 2
Fore
SplineSet
310.5 398.525390625 m 25
 464.5 398 l 1029
467 398 m 29
 462.5 398 l 1029
196 -1 m 5
 547.5 2 l 5
 455.508789062 12.466796875 330 26 424.286132812 125 c 5
 614.5 397 l 5
 563.666992188 397 515.833007812 397 465 397 c 5
 196 -1 l 5
759 895.030273438 m 1
 407.5 891.287109375 l 1
 499.491210938 878.23046875 625 861.34765625 530.713867188 737.844726562 c 1
 310.5 398.525390625 l 1
 361.333007812 398.525390625 409.166992188 398.525390625 460 398.525390625 c 1
 759 895.030273438 l 1
EndSplineSet
Validated: 43
EndChar

StartChar: uniE08C
Encoding: 57484 57484 140
Width: 1000
VWidth: 0
Flags: W
LayerCount: 2
Fore
SplineSet
504.5 400 m 1029,0,-1
507 400 m 29,1,-1
 502.5 400 l 1029,2,-1
505 399 m 1029,3,-1
675 401 m 1029,4,-1
672 401 m 5,5,-1
 504.5 400 l 29,6,-1
 243.5 -1 l 5,7,-1
 396 -1 l 5,8,-1
 487.29296875 80.7578125 639.748046875 -3.376953125 353 -100 c 5,11,-1
 471.166992188 -70.7021484375 764.5 -25 481 126 c 5,14,-1
 672 401 l 5,5,-1
353 399 m 1,15,-1
 402.166666667 399 451.333333333 399 500.5 399 c 1,18,-1
 853 900 l 1,19,-1
 700.5 900 l 1,20,-1
 353 399 l 1,15,-1
EndSplineSet
Validated: 43
EndChar

StartChar: uniE08D
Encoding: 57485 57485 141
Width: 1000
VWidth: 0
Flags: W
HStem: 500 4<505.5 653> 503 1<501.5 504>
LayerCount: 2
Fore
SplineSet
356.5 503 m 5x40
 504 503 l 29
 785 905 l 5
 632.5 905 l 5
 613.5 878 l 4
 577.5 908 l 4
 675.5 1004 l 4
 554.5 974 l 4
 467.5 918 l 4
 463.5 812 l 4
 547.5 778 l 5
 356.5 503 l 5x40
492.5 507 m 21
 640 507 l 21
 492.5 507 l 21
649 507 m 5
 496.5 507 l 1029
654 504 m 5
 501.5 504 l 5
 654 504 l 5
649 504 m 5x80
 501.5 504 l 1053
653 500 m 21
 505.5 500 l 21
 653 500 l 21
496.5 500 m 5
 649 500 l 1029
501.5 504 m 5
 654 504 l 1029x40
649 504 m 5x80
 501.5 504 l 5x40
 149 3 l 5
 301.5 3 l 5
 649 504 l 5x80
EndSplineSet
Validated: 11
EndChar

StartChar: uniE08E
Encoding: 57486 57486 142
Width: 1000
VWidth: 0
Flags: W
HStem: 885 17<496.147 533>
LayerCount: 2
Fore
SplineSet
647.5 398 m 5
 500 398 l 29
 219 -2 l 5
 371.5 -2 l 5
 390.5 25 l 4
 426.5 -5 l 4
 328.5 -101 l 4
 449.5 -71 l 4
 536.5 -15 l 4
 540.5 91 l 4
 456.5 125 l 5
 647.5 398 l 5
501.5 396 m 21
 354 396 l 21
 501.5 396 l 21
798 924 m 5
 443.5 902 l 5
 533 885 l 4
 611 839 l 4
 345 396 l 5
 497.5 396 l 5
 798 924 l 5
EndSplineSet
Validated: 5
EndChar

StartChar: uniE08F
Encoding: 57487 57487 143
Width: 1000
VWidth: 0
Flags: W
HStem: 1 17<484 520.853> 399 4<491 492.5>
LayerCount: 2
Fore
SplineSet
345 399 m 5
 492.5 399 l 5
 849 905 l 5
 696.5 905 l 5
 677.5 878 l 4
 641.5 908 l 4
 739.5 1004 l 4
 618.5 974 l 4
 531.5 918 l 4
 527.5 812 l 4
 611.5 778 l 5
 345 399 l 5
491 403 m 21
 638.5 403 l 21
 491 403 l 21
209 -1 m 5
 573.5 1 l 5
 484 18 l 4
 406 64 l 4
 647.5 403 l 5
 495 403 l 5
 209 -1 l 5
EndSplineSet
Validated: 5
EndChar

StartChar: uniE091
Encoding: 57489 57489 145
Width: 1000
VWidth: 0
Flags: W
HStem: -96 17<422 458.853>
LayerCount: 2
Fore
SplineSet
157 -99 m 5
 511.5 -96 l 5
 422 -79 l 4
 344 -33 l 4
 652.5 399 l 5
 500 399 l 5
 157 -99 l 5
355 399 m 5
 502.5 399 l 29
 783.5 801 l 5
 631 801 l 5
 355 399 l 5
EndSplineSet
Validated: 5
EndChar

StartChar: uniE092
Encoding: 57490 57490 146
Width: 1000
VWidth: 0
Flags: W
HStem: 781 17<471.647 508.5>
LayerCount: 2
Fore
SplineSet
773.5 801 m 5
 419 798 l 5
 508.5 781 l 4
 586.5 735 l 4
 345 399 l 5
 497.5 399 l 5
 773.5 801 l 5
642.5 399 m 5
 495 399 l 5
 147 -99 l 5
 299.5 -99 l 5
 642.5 399 l 5
EndSplineSet
Validated: 5
EndChar

StartChar: uniE093
Encoding: 57491 57491 147
Width: 1000
VWidth: 0
Flags: W
HStem: -99 17<422 458.853> 399 4<355.5 503> 781 17<481.147 518>
LayerCount: 2
Fore
SplineSet
157 -101 m 5
 511.5 -99 l 5
 422 -82 l 4
 344 -36 l 4
 654 403 l 5
 501.5 403 l 5
 157 -101 l 5
504 403 m 5
 351.5 403 l 5
 504 403 l 5
351.5 403 m 21
 499 403 l 21
 351.5 403 l 21
503 399 m 21
 355.5 399 l 21
 503 399 l 21
783 800 m 5
 428.5 798 l 5
 518 781 l 4
 596 735 l 4
 346.5 399 l 5
 499 399 l 5
 783 800 l 5
351.5 403 m 5
 504 403 l 1029
499 403 m 5
 351.5 403 l 1029
EndSplineSet
Validated: 11
EndChar

StartChar: uniE094
Encoding: 57492 57492 148
Width: 1000
VWidth: 0
Flags: W
HStem: 395 4<359.5 494 498.5 507>
LayerCount: 2
Fore
SplineSet
646 399 m 5
 498.5 399 l 29
 147 -100 l 5
 299.5 -100 l 5
 318.5 -73 l 4
 354.5 -103 l 4
 256.5 -199 l 4
 377.5 -169 l 4
 464.5 -113 l 4
 468.5 -7 l 4
 384.5 27 l 5
 646 399 l 5
507 395 m 21
 359.5 395 l 21
 507 395 l 21
350.5 395 m 5
 503 395 l 1029
345.5 398 m 5
 498 398 l 5
 345.5 398 l 5
350.5 398 m 5
 498 398 l 1053
346.5 402 m 21
 494 402 l 21
 346.5 402 l 21
503 402 m 5
 350.5 402 l 1029
498 398 m 5
 345.5 398 l 1029
350.5 398 m 5
 498 398 l 5
 780 802 l 5
 627.5 802 l 5
 350.5 398 l 5
EndSplineSet
Validated: 11
EndChar

StartChar: uniE095
Encoding: 57493 57493 149
Width: 1000
VWidth: 0
Flags: W
HStem: 397 4<498.5 646> 400 1<494.5 497>
LayerCount: 2
Fore
SplineSet
349.5 400 m 5x40
 497 400 l 29
 778 802 l 5
 625.5 802 l 5
 606.5 775 l 4
 570.5 805 l 4
 668.5 901 l 4
 547.5 871 l 4
 460.5 815 l 4
 456.5 709 l 4
 540.5 675 l 5
 349.5 400 l 5x40
485.5 404 m 21
 633 404 l 21
 485.5 404 l 21
642 404 m 5
 489.5 404 l 1029
647 401 m 5
 494.5 401 l 5
 647 401 l 5
642 401 m 5x80
 494.5 401 l 1053
646 397 m 21
 498.5 397 l 21
 646 397 l 21
489.5 397 m 5
 642 397 l 1029
494.5 401 m 5
 647 401 l 1029x40
642 401 m 5x80
 494.5 401 l 5x40
 142 -100 l 5
 294.5 -100 l 5
 642 401 l 5x80
EndSplineSet
Validated: 11
EndChar

StartChar: uniE096
Encoding: 57494 57494 150
Width: 1000
VWidth: 0
Flags: W
HStem: 802 17<461.647 498.5>
LayerCount: 2
Fore
SplineSet
648 399 m 5
 500.5 399 l 29
 174.5 -85 l 5
 327 -85 l 5
 346 -58 l 4
 382 -88 l 4
 284 -184 l 4
 405 -154 l 4
 492 -98 l 4
 496 8 l 4
 412 42 l 5
 648 399 l 5
512 399 m 21
 364.5 399 l 21
 512 399 l 21
763.5 821 m 5
 409 819 l 5
 498.5 802 l 4
 576.5 756 l 4
 355.5 399 l 5
 508 399 l 5
 763.5 821 l 5
EndSplineSet
Validated: 5
EndChar

StartChar: uniE097
Encoding: 57495 57495 151
Width: 1000
VWidth: 0
Flags: W
HStem: -106 17<418.5 455.353> 400 3<498.5 500>
LayerCount: 2
Fore
SplineSet
352.5 400 m 5
 500 400 l 5
 783.5 799 l 5
 631 799 l 5
 612 772 l 4
 576 802 l 4
 674 898 l 4
 553 868 l 4
 466 812 l 4
 462 706 l 4
 546 672 l 5
 352.5 400 l 5
498.5 403 m 21
 646 403 l 21
 498.5 403 l 21
153.5 -108 m 5
 508 -106 l 5
 418.5 -89 l 4
 340.5 -43 l 4
 655 403 l 5
 502.5 403 l 5
 153.5 -108 l 5
EndSplineSet
Validated: 5
EndChar

StartChar: uniE098
Encoding: 57496 57496 152
Width: 1000
VWidth: 0
Flags: W
LayerCount: 2
Fore
SplineSet
156.5 -96 m 5
 304 -96 l 29
 652.5 399 l 5
 500 399 l 5
 156.5 -96 l 5
355 399 m 5
 502.5 399 l 5
 855 900 l 5
 702.5 900 l 5
 355 399 l 5
EndSplineSet
Validated: 5
EndChar

StartChar: uniE099
Encoding: 57497 57497 153
Width: 1000
VWidth: 0
Flags: W
HStem: -100 17<421 457.853>
LayerCount: 2
Fore
SplineSet
638.5 397 m 1045,0,-1
156 -102 m 5,1,-1
 510.5 -100 l 5,2,-1
 421 -83 l 4,3,-1
 343 -37 l 4,4,-1
 647.5 397 l 5,5,-1
 495 397 l 5,6,-1
 156 -102 l 5,1,-1
502.5 399 m 5,7,-1
 350 399 l 1029,8,-1
355 399 m 5,9,-1
 502.5 399 l 5,10,-1
 855 900 l 5,11,-1
 702.5 900 l 5,12,-1
 355 399 l 5,9,-1
EndSplineSet
Validated: 11
EndChar

StartChar: uniE09A
Encoding: 57498 57498 154
Width: 1000
VWidth: 0
Flags: W
HStem: 881 17<533.147 570>
LayerCount: 2
Fore
SplineSet
835 900 m 5
 480.5 898 l 5
 570 881 l 4
 648 835 l 4
 336 405 l 5
 488.5 405 l 5
 835 900 l 5
491 406 m 5
 643.5 406 l 1029
638.5 406 m 5
 491 406 l 5
 146 -102 l 5
 298.5 -102 l 5
 638.5 406 l 5
EndSplineSet
Validated: 11
EndChar

StartChar: uniE09B
Encoding: 57499 57499 155
Width: 1000
VWidth: 0
Flags: W
HStem: -100 17<412 448.853> 399 4<350 497.5> 881 17<544.147 581>
LayerCount: 2
Fore
SplineSet
147 -102 m 5
 501.5 -100 l 5
 412 -83 l 4
 334 -37 l 4
 648.5 403 l 5
 496 403 l 5
 147 -102 l 5
498.5 403 m 5
 346 403 l 5
 498.5 403 l 5
346 403 m 21
 493.5 403 l 21
 346 403 l 21
497.5 399 m 21
 350 399 l 21
 497.5 399 l 21
846 900 m 5
 491.5 898 l 5
 581 881 l 4
 659 835 l 4
 341 399 l 5
 493.5 399 l 5
 846 900 l 5
346 403 m 5
 498.5 403 l 1029
493.5 403 m 5
 346 403 l 1029
EndSplineSet
Validated: 11
EndChar

StartChar: uniE09C
Encoding: 57500 57500 156
Width: 1000
VWidth: 0
Flags: W
HStem: 396 4<374 510 512.5 521.5>
LayerCount: 2
Fore
SplineSet
657.5 400 m 5
 510 400 l 5
 166 -99 l 5
 318.5 -99 l 5
 337.5 -72 l 4
 373.5 -102 l 4
 275.5 -198 l 4
 396.5 -168 l 4
 483.5 -112 l 4
 487.5 -6 l 4
 403.5 28 l 5
 657.5 400 l 5
521.5 396 m 21
 374 396 l 21
 521.5 396 l 21
365 396 m 5
 517.5 396 l 1029
360 399 m 5
 512.5 399 l 5
 360 399 l 5
365 399 m 5
 512.5 399 l 1053
361 403 m 21
 508.5 403 l 21
 361 403 l 21
517.5 403 m 5
 365 403 l 1029
512.5 399 m 5
 360 399 l 1029
365 399 m 5
 512.5 399 l 5
 865 900 l 5
 712.5 900 l 5
 365 399 l 5
EndSplineSet
Validated: 11
EndChar

StartChar: uniE09D
Encoding: 57501 57501 157
Width: 1000
VWidth: 0
Flags: W
HStem: 396 4<514 657.5>
LayerCount: 2
Fore
SplineSet
355 399 m 5
 502.5 399 l 29
 855 905 l 5
 702.5 905 l 5
 683.5 878 l 4
 647.5 908 l 4
 745.5 1004 l 4
 624.5 974 l 4
 537.5 918 l 4
 533.5 812 l 4
 617.5 778 l 5
 355 399 l 5
501 403 m 21
 648.5 403 l 21
 501 403 l 21
657.5 403 m 5
 505 403 l 1029
662.5 400 m 5
 510 400 l 5
 662.5 400 l 5
657.5 400 m 5
 510 400 l 1053
661.5 396 m 21
 514 396 l 21
 661.5 396 l 21
505 396 m 5
 657.5 396 l 1029
510 400 m 5
 662.5 400 l 1029
657.5 400 m 5
 510 400 l 5
 150 -99 l 5
 302.5 -99 l 5
 657.5 400 l 5
EndSplineSet
Validated: 11
EndChar

StartChar: uniE09E
Encoding: 57502 57502 158
Width: 1000
VWidth: 0
Flags: W
HStem: 396 3<493 501.5> 885 17<578.5 673>
LayerCount: 2
Fore
SplineSet
640.5 399 m 1
 493 399 l 1
 149 -97 l 5
 301.5 -97 l 1
 320.5 -70 l 0
 356.5 -100 l 0
 258.5 -196 l 0
 379.5 -166 l 0
 466.5 -110 l 0
 470.5 -4 l 0
 386.5 30 l 1
 640.5 399 l 1
501.5 396 m 17
 354 396 l 17
 501.5 396 l 17
798 904 m 1
 443.5 902 l 1
 673 885 l 0
 611 839 l 0
 345 396 l 1
 497.5 396 l 1
 798 904 l 1
EndSplineSet
Validated: 5
EndChar

StartChar: uniE09F
Encoding: 57503 57503 159
Width: 1000
VWidth: 0
Flags: W
HStem: -97 17<410 446.853> 397 6<495 502.5>
LayerCount: 2
Fore
SplineSet
355 397 m 5
 502.5 397 l 5
 859 905 l 1
 706.5 905 l 1
 687.5 878 l 0
 651.5 908 l 0
 749.5 1004 l 0
 628.5 974 l 0
 541.5 918 l 0
 537.5 812 l 0
 621.5 778 l 1
 355 397 l 5
491 403 m 17
 638.5 403 l 17
 491 403 l 17
145 -99 m 1
 499.5 -97 l 1
 410 -80 l 0
 332 -34 l 0
 647.5 403 l 1
 495 403 l 1
 145 -99 l 1
EndSplineSet
Validated: 5
EndChar

StartChar: uniE0C0
Encoding: 57536 57536 160
Width: 1000
VWidth: 0
HStem: 351 99<150.5 783>
LayerCount: 2
Fore
SplineSet
90.5 453 m 25
 783 450 l 29
 843 351 l 25
 150.5 351 l 25
 90.5 453 l 25
EndSplineSet
Validated: 1
EndChar

StartChar: uniE0C1
Encoding: 57537 57537 161
Width: 1000
VWidth: 0
Flags: W
HStem: 353 101<210.5 738.575>
LayerCount: 2
Fore
SplineSet
150.500015259 453 m 1
 708 454 l 1
 756 459 748 513 724 611 c 5
 843.5 353 l 1
 210.5 351 l 1
 150.500015259 453 l 1
EndSplineSet
Validated: 33
EndChar

StartChar: uniE0C5
Encoding: 57541 57541 165
Width: 1000
VWidth: 0
Flags: W
HStem: 353 102<254.727 286 708 738.575>
LayerCount: 2
Fore
SplineSet
528 455 m 5
 286 454 l 1
 238 459 246 513 270 611 c 1
 150.5 353 l 1
 465 353 l 1
 528 455 l 5
466.5 353 m 1
 708 352 l 1
 756 347 748 293 724 195 c 1
 843.5 453 l 1
 526.5 455 l 1
 466.5 353 l 1
EndSplineSet
Validated: 37
EndChar

StartChar: uniE0A0
Encoding: 57504 57504 167
Width: 1000
VWidth: 0
Flags: W
LayerCount: 2
Fore
SplineSet
286.5 -3 m 5
 434 -3 l 29
 705 399 l 5
 552.5 399 l 5
 286.5 -3 l 5
305 399 m 5
 452.5 399 l 29
 733.5 801 l 5
 581 801 l 5
 305 399 l 5
EndSplineSet
Validated: 9
EndChar

StartChar: uniE0A1
Encoding: 57505 57505 168
Width: 1000
VWidth: 0
Flags: W
HStem: 0 17<539 575.853>
LayerCount: 2
Fore
SplineSet
274 -3 m 1
 628.5 0 l 1
 539 17 l 0
 461 63 l 0
 702.5 399 l 1
 550 399 l 1
 274 -3 l 1
295 399 m 5
 442.5 399 l 29
 723.5 801 l 5
 571 801 l 5
 295 399 l 5
EndSplineSet
Validated: 9
EndChar

StartChar: uniE0A2
Encoding: 57506 57506 169
Width: 1000
VWidth: 0
Flags: W
HStem: 781 17<421.647 458.5>
LayerCount: 2
Fore
SplineSet
723.5 801 m 5
 369 798 l 5
 458.5 781 l 4
 536.5 735 l 4
 295 399 l 5
 447.5 399 l 5
 723.5 801 l 5
692.5 399 m 5
 545 399 l 29
 264 -3 l 5
 416.5 -3 l 5
 692.5 399 l 5
EndSplineSet
Validated: 9
EndChar

StartChar: uniE0A3
Encoding: 57507 57507 170
Width: 1000
VWidth: 0
Flags: W
HStem: -3 17<538 574.853> 781 17<421.647 458.5>
LayerCount: 2
Fore
SplineSet
273 0 m 5
 627.5 -3 l 1
 538 14 l 0
 460 60 l 0
 701.5 396 l 5
 549 396 l 5
 273 0 l 5
451.5 396 m 17
 304 396 l 17
 451.5 396 l 17
723.5 800 m 1
 369 798 l 1
 458.5 781 l 0
 536.5 735 l 0
 295 396 l 1
 447.5 396 l 1
 723.5 800 l 1
EndSplineSet
Validated: 5
EndChar

StartChar: uniE0A4
Encoding: 57508 57508 171
Width: 1000
VWidth: 0
Flags: W
LayerCount: 2
Fore
SplineSet
713.5 834 m 5
 566 834 l 29
 285 402 l 5
 437.5 402 l 5
 713.5 834 l 5
692.5 402 m 1
 545 402 l 25
 264 0 l 1
 416.5 0 l 1
 435.5 27 l 0
 471.5 -3 l 0
 373.5 -99 l 0
 494.5 -69 l 0
 581.5 -13 l 0
 585.5 93 l 0
 501.5 127 l 1
 692.5 402 l 1
EndSplineSet
Validated: 9
EndChar

StartChar: uniE0A5
Encoding: 57509 57509 172
Width: 1000
VWidth: 0
Flags: W
LayerCount: 2
Fore
SplineSet
272 -3 m 5
 419.5 -3 l 29
 700.5 399 l 5
 548 399 l 5
 272 -3 l 5
295 399 m 5
 442.5 399 l 29
 723.5 801 l 5
 571 801 l 5
 552 774 l 4
 516 804 l 4
 614 900 l 4
 493 870 l 4
 406 814 l 4
 402 708 l 4
 486 674 l 5
 295 399 l 5
EndSplineSet
Validated: 9
EndChar

StartChar: uniE0A6
Encoding: 57510 57510 173
Width: 1000
VWidth: 0
Flags: W
HStem: 831 17<431.647 468.5>
LayerCount: 2
Fore
SplineSet
697.5 398 m 5
 550 398 l 29
 269 -2 l 5
 421.5 -2 l 5
 440.5 25 l 4
 476.5 -5 l 4
 378.5 -101 l 4
 499.5 -71 l 4
 586.5 -15 l 4
 590.5 91 l 4
 506.5 125 l 5
 697.5 398 l 5
461.5 396 m 21
 314 396 l 21
 461.5 396 l 21
733.5 850 m 5
 379 848 l 5
 468.5 831 l 4
 546.5 785 l 4
 305 396 l 5
 457.5 396 l 5
 733.5 850 l 5
EndSplineSet
Validated: 5
EndChar

StartChar: uniE0A7
Encoding: 57511 57511 174
Width: 1000
VWidth: 0
Flags: W
HStem: 1 17<534 570.853>
LayerCount: 2
Fore
SplineSet
298 399 m 5
 445.5 396 l 29
 726.5 771 l 5
 574 771 l 5
 555 744 l 4
 519 774 l 4
 617 870 l 4
 496 840 l 4
 409 784 l 4
 405 678 l 4
 489 644 l 5
 298 399 l 5
541 403 m 21
 688.5 400 l 21
 541 403 l 21
269 -1 m 5
 623.5 1 l 5
 534 18 l 4
 456 64 l 4
 697.5 400 l 5
 545 400 l 5
 269 -1 l 5
EndSplineSet
Validated: 5
EndChar

StartChar: uniE0A8
Encoding: 57512 57512 175
Width: 1000
VWidth: 0
Flags: W
LayerCount: 2
Fore
SplineSet
275 1 m 5
 422.5 1 l 29
 703.5 399 l 5
 551 399 l 5
 275 1 l 5
305 399 m 5
 452.5 399 l 5
 805 900 l 5
 652.5 900 l 5
 305 399 l 5
EndSplineSet
Validated: 9
EndChar

StartChar: uniE0A9
Encoding: 57513 57513 176
Width: 1000
VWidth: 0
Flags: W
HStem: 2 17<603 639.853>
LayerCount: 2
Fore
SplineSet
338 0 m 5
 692.5 2 l 5
 603 19 l 4
 525 65 l 4
 756.5 397 l 5
 604 397 l 5
 338 0 l 5
502.5 399 m 5
 350 399 l 1029
355 399 m 5
 502.5 399 l 5
 855 900 l 5
 702.5 900 l 5
 355 399 l 5
EndSplineSet
Validated: 11
EndChar

StartChar: uniE0AA
Encoding: 57514 57514 177
Width: 1000
VWidth: 0
Flags: W
HStem: 881 17<513.147 550>
LayerCount: 2
Fore
SplineSet
706 399 m 1029,0,-1
815 900 m 5,1,-1
 460.5 898 l 5,2,-1
 550 881 l 4,3,-1
 628 835 l 4,4,-1
 287 399 l 5,5,-1
 442.5 399 l 5,6,-1
 815 900 l 5,1,-1
701 399 m 5,7,-1
 553.5 399 l 5,8,-1
 269 -1 l 5,9,-1
 421.5 -1 l 5,10,-1
 701 399 l 5,7,-1
EndSplineSet
Validated: 9
EndChar

StartChar: uniE0AB
Encoding: 57515 57515 178
Width: 1000
VWidth: 0
Flags: W
HStem: -1 17<594 630.853> 399 4<345 492.5> 881 17<543.147 580>
LayerCount: 2
Fore
SplineSet
329 -3 m 5
 683.5 -1 l 5
 594 16 l 4
 516 62 l 4
 757.5 402 l 5
 605 402 l 5
 329 -3 l 5
345 403 m 21
 492.5 403 l 21
 345 403 l 21
845 900 m 5
 490.5 898 l 5
 580 881 l 4
 658 835 l 4
 340 399 l 5
 492.5 399 l 5
 845 900 l 5
345 403 m 1029
EndSplineSet
Validated: 9
EndChar

StartChar: uniE0AC
Encoding: 57516 57516 179
Width: 1000
VWidth: 0
Flags: W
LayerCount: 2
Fore
SplineSet
704.5 399 m 5
 557 399 l 29
 276 -43 l 5
 428.5 -43 l 5
 447.5 -16 l 4
 483.5 -46 l 4
 385.5 -142 l 4
 506.5 -112 l 4
 593.5 -56 l 4
 597.5 50 l 4
 513.5 84 l 5
 704.5 399 l 5
293 398 m 5
 440.5 398 l 1053
289 402 m 21
 436.5 402 l 21
 289 402 l 21
445.5 402 m 5
 293 402 l 1029
440.5 398 m 5
 288 398 l 1029
293 398 m 5
 440.5 398 l 5
 793 899 l 5
 640.5 899 l 5
 293 398 l 5
EndSplineSet
Validated: 11
EndChar

StartChar: uniE0AD
Encoding: 57517 57517 180
Width: 1000
VWidth: 0
Flags: W
LayerCount: 2
Fore
SplineSet
306.5 503 m 5
 456.5 500 l 29
 735 905 l 5
 582.5 905 l 5
 563.5 878 l 4
 527.5 908 l 4
 625.5 1004 l 4
 504.5 974 l 4
 417.5 918 l 4
 413.5 812 l 4
 497.5 778 l 5
 306.5 503 l 5
719 504 m 5
 571.5 504 l 5
 219 3 l 5
 371.5 3 l 5
 719 504 l 5
EndSplineSet
Validated: 9
EndChar

StartChar: uniE0AE
Encoding: 57518 57518 181
Width: 1000
VWidth: 0
Flags: W
HStem: 885 17<446.147 483>
LayerCount: 2
Fore
SplineSet
707.5 398 m 5
 550 398 l 29
 279 -2 l 5
 431.5 -2 l 5
 450.5 25 l 4
 486.5 -5 l 4
 388.5 -101 l 4
 509.5 -71 l 4
 586.5 -15 l 4
 590.5 91 l 4
 516.5 125 l 5
 707.5 398 l 5
748 924 m 5
 393.5 902 l 5
 483 885 l 4
 561 839 l 4
 295 396 l 5
 345.833007812 396.024414062 396.666992188 402.741210938 447.5 396 c 5
 748 924 l 5
EndSplineSet
Validated: 41
EndChar

StartChar: uniE0AF
Encoding: 57519 57519 182
Width: 1000
VWidth: 0
Flags: W
HStem: 1 17<544 580.853>
LayerCount: 2
Fore
SplineSet
295 399 m 5
 442.5 399 l 5
 799 905 l 5
 646.5 905 l 5
 627.5 878 l 4
 591.5 908 l 4
 689.5 1004 l 4
 568.5 974 l 4
 481.5 918 l 4
 477.5 812 l 4
 561.5 778 l 5
 295 399 l 5
551 403 m 21
 698.5 403 l 21
 551 403 l 21
269 -1 m 5
 633.5 1 l 5
 544 18 l 4
 466 64 l 4
 707.5 403 l 5
 555 403 l 5
 269 -1 l 5
EndSplineSet
Validated: 5
EndChar

StartChar: uniE0B0
Encoding: 57520 57520 183
Width: 1000
VWidth: 0
Flags: W
LayerCount: 2
Fore
SplineSet
213 -103 m 5
 360.5 -103 l 5
 710 399 l 5
 557.5 399 l 5
 213 -103 l 5
300.5 399 m 5
 448 399 l 5
 732 800 l 5
 579.5 800 l 5
 300.5 399 l 5
EndSplineSet
Validated: 9
EndChar

StartChar: uniE0B1
Encoding: 57521 57521 184
Width: 1000
VWidth: 0
Flags: W
HStem: -96 17<492 520.618>
LayerCount: 2
Fore
SplineSet
227 -99 m 5
 561.5 -96 l 5
 492 -79 l 4
 414 -33 l 4
 722.5 399 l 5
 570 399 l 5
 227 -99 l 5
295 399 m 5
 442.5 399 l 29
 723.5 801 l 5
 571 801 l 5
 295 399 l 5
EndSplineSet
Validated: 9
EndChar

StartChar: uniE0B2
Encoding: 57522 57522 185
Width: 1000
VWidth: 0
Flags: W
HStem: 781 17<421.647 458.5>
LayerCount: 2
Fore
SplineSet
723.5 801 m 5
 369 798 l 5
 458.5 781 l 4
 536.5 735 l 4
 295 399 l 5
 447.5 399 l 5
 723.5 801 l 5
692.5 399 m 5
 545 399 l 5
 197 -99 l 5
 349.5 -99 l 5
 692.5 399 l 5
EndSplineSet
Validated: 9
EndChar

StartChar: uniE0B3
Encoding: 57523 57523 186
Width: 1000
VWidth: 0
Flags: W
HStem: -99 17<472 508.853> 781 17<431.147 468>
LayerCount: 2
Fore
SplineSet
217 -101 m 1
 561.5 -99 l 1
 472 -82 l 0
 414 -36 l 0
 714 403 l 1
 561.5 403 l 1
 217 -101 l 1
733 800 m 1
 378.5 798 l 1
 468 781 l 0
 546 735 l 0
 296.5 399 l 1
 347.333007812 399 398.166992188 399 449 399 c 1
 733 800 l 1
301.5 403 m 1
 454 403 l 1025
449 403 m 1
 301.5 403 l 1025
EndSplineSet
Validated: 11
EndChar

StartChar: uniE0B4
Encoding: 57524 57524 187
Width: 1000
VWidth: 0
Flags: W
LayerCount: 2
Fore
SplineSet
696 399 m 5
 548.5 399 l 29
 197 -100 l 5
 349.5 -100 l 5
 368.5 -73 l 4
 404.5 -103 l 4
 306.5 -199 l 4
 427.5 -169 l 4
 514.5 -113 l 4
 518.5 -7 l 4
 434.5 27 l 5
 696 399 l 5
458 398 m 5
 305.5 398 l 1029
310.5 398 m 5
 458 398 l 5
 740 802 l 5
 587.5 802 l 5
 310.5 398 l 5
EndSplineSet
Validated: 11
EndChar

StartChar: uniE0B5
Encoding: 57525 57525 188
Width: 1000
VWidth: 0
Flags: W
LayerCount: 2
Fore
SplineSet
299.5 400 m 5
 447 400 l 29
 728 802 l 5
 575.5 802 l 5
 556.5 775 l 4
 520.5 805 l 4
 618.5 901 l 4
 497.5 871 l 4
 410.5 815 l 4
 406.5 709 l 4
 490.5 675 l 5
 299.5 400 l 5
554.5 401 m 5
 707 401 l 1029
702 401 m 5
 554.5 401 l 5
 202 -100 l 5
 354.5 -100 l 5
 702 401 l 5
EndSplineSet
Validated: 11
EndChar

StartChar: uniE0B6
Encoding: 57526 57526 189
Width: 1000
VWidth: 0
Flags: W
HStem: 782 17<401.647 438.5>
LayerCount: 2
Fore
SplineSet
708 399 m 1
 560.5 399 l 25
 234.5 -85 l 1
 387 -85 l 1
 406 -58 l 0
 442 -88 l 0
 344 -184 l 0
 465 -154 l 0
 552 -98 l 0
 556 8 l 0
 472 42 l 1
 708 399 l 1
452 399 m 17
 304.5 399 l 17
 452 399 l 17
703.5 801 m 5
 349 799 l 5
 438.5 782 l 4
 516.5 736 l 4
 295.5 399 l 1
 448 399 l 1
 703.5 801 l 5
EndSplineSet
Validated: 5
EndChar

StartChar: uniE0B7
Encoding: 57527 57527 190
Width: 1000
VWidth: 0
Flags: W
HStem: -106 17<478.5 515.353>
LayerCount: 2
Fore
SplineSet
302.5 400 m 5
 450 400 l 5
 733.5 799 l 5
 581 799 l 5
 562 772 l 4
 526 802 l 4
 624 898 l 4
 503 868 l 4
 416 812 l 4
 412 706 l 4
 496 672 l 5
 302.5 400 l 5
558.5 403 m 21
 706 403 l 21
 558.5 403 l 21
213.5 -108 m 5
 568 -106 l 5
 478.5 -89 l 4
 400.5 -43 l 4
 715 403 l 5
 562.5 403 l 5
 213.5 -108 l 5
EndSplineSet
Validated: 5
EndChar

StartChar: uniE0B8
Encoding: 57528 57528 191
Width: 1000
VWidth: 0
Flags: W
LayerCount: 2
Fore
SplineSet
206.5 -96 m 5
 354 -96 l 29
 702.5 399 l 5
 550 399 l 5
 206.5 -96 l 5
305 399 m 5
 452.5 399 l 5
 805 900 l 5
 652.5 900 l 5
 305 399 l 5
EndSplineSet
Validated: 9
EndChar

StartChar: uniE0B9
Encoding: 57529 57529 192
Width: 1000
VWidth: 0
Flags: W
HStem: -100 17<471 507.853>
LayerCount: 2
Fore
SplineSet
206 -102 m 5
 560.5 -100 l 5
 471 -83 l 4
 393 -37 l 4
 697.5 397 l 5
 545 397 l 5
 206 -102 l 5
452.5 399 m 5
 300 399 l 1029
305 399 m 5
 452.5 399 l 5
 805 900 l 5
 652.5 900 l 5
 305 399 l 5
EndSplineSet
Validated: 11
EndChar

StartChar: uniE0BA
Encoding: 57530 57530 193
Width: 1000
VWidth: 0
Flags: W
HStem: 876 17<493.147 530>
LayerCount: 2
Fore
SplineSet
795 895 m 5
 440.5 893 l 5
 530 876 l 4
 608 830 l 4
 296 400 l 5
 448.5 400 l 5
 795 895 l 5
551 401 m 5
 703.5 401 l 1029
698.5 401 m 5
 551 401 l 5
 206 -102 l 5
 358.5 -102 l 5
 698.5 401 l 5
EndSplineSet
Validated: 11
EndChar

StartChar: uniE0BB
Encoding: 57531 57531 194
Width: 1000
VWidth: 0
Flags: W
HStem: -100 17<473 509.853> 399 4<311 458.5> 881 17<505.147 542>
LayerCount: 2
Fore
SplineSet
208 -102 m 5
 562.5 -100 l 5
 473 -83 l 4
 395 -37 l 4
 709.5 403 l 5
 557 403 l 5
 208 -102 l 5
459.5 403 m 5
 307 403 l 5
 459.5 403 l 5
307 403 m 21
 454.5 403 l 21
 307 403 l 21
458.5 399 m 21
 311 399 l 21
 458.5 399 l 21
807 900 m 5
 452.5 898 l 5
 542 881 l 4
 620 835 l 4
 302 399 l 5
 454.5 399 l 5
 807 900 l 5
307 403 m 5
 459.5 403 l 1029
454.5 403 m 5
 307 403 l 1029
EndSplineSet
Validated: 11
EndChar

StartChar: uniE0BC
Encoding: 57532 57532 195
Width: 1000
VWidth: 0
Flags: W
LayerCount: 2
Fore
SplineSet
687.5 400 m 5
 540 400 l 5
 196 -99 l 5
 348.5 -99 l 5
 367.5 -72 l 4
 403.5 -102 l 4
 305.5 -198 l 4
 426.5 -168 l 4
 513.5 -112 l 4
 517.5 -6 l 4
 433.5 28 l 5
 687.5 400 l 5
452.5 399 m 5
 300 399 l 1029
305 399 m 5
 452.5 399 l 5
 805 900 l 5
 652.5 900 l 5
 305 399 l 5
EndSplineSet
Validated: 11
EndChar

StartChar: uniE0BD
Encoding: 57533 57533 196
Width: 1000
VWidth: 0
Flags: W
LayerCount: 2
Fore
SplineSet
295 399 m 5
 442.5 399 l 29
 795 905 l 5
 592.5 905 l 1
 573.5 878 l 0
 587.5 908 l 4
 635.5 1004 l 0
 564.5 974 l 4
 477.5 918 l 4
 473.5 812 l 4
 557.5 778 l 5
 295 399 l 5
560 400 m 5
 712.5 400 l 1029
707.5 400 m 5
 560 400 l 5
 200 -99 l 5
 352.5 -99 l 5
 707.5 400 l 5
EndSplineSet
Validated: 11
EndChar

StartChar: uniE0BE
Encoding: 57534 57534 197
Width: 1000
VWidth: 0
Flags: W
HStem: 885 17<528.5 623>
LayerCount: 2
Fore
SplineSet
690.5 399 m 5
 543 399 l 5
 199 -97 l 5
 351.5 -97 l 5
 370.5 -70 l 4
 406.5 -100 l 4
 308.5 -196 l 4
 429.5 -166 l 4
 516.5 -110 l 4
 520.5 -4 l 4
 436.5 30 l 5
 690.5 399 l 5
451.5 396 m 21
 304 396 l 21
 451.5 396 l 21
748 904 m 5
 393.5 902 l 5
 623 885 l 4
 561 839 l 4
 295 396 l 5
 447.5 396 l 5
 748 904 l 5
EndSplineSet
Validated: 5
EndChar

StartChar: uniE0BF
Encoding: 57535 57535 198
Width: 1000
VWidth: 0
Flags: W
HStem: -97 17<470 506.853>
LayerCount: 2
Fore
SplineSet
295 397 m 5
 442.5 397 l 5
 799 905 l 5
 646.5 905 l 5
 627.5 878 l 4
 591.5 908 l 4
 689.5 1004 l 4
 568.5 974 l 4
 481.5 918 l 4
 477.5 812 l 4
 561.5 778 l 5
 295 397 l 5
551 403 m 21
 698.5 403 l 21
 551 403 l 21
205 -99 m 5
 559.5 -97 l 5
 470 -80 l 4
 392 -34 l 4
 707.5 403 l 5
 555 403 l 5
 205 -99 l 5
EndSplineSet
Validated: 5
EndChar

StartChar: uniE0C7
Encoding: 57543 57543 200
Width: 1000
VWidth: 0
Flags: HMW
LayerCount: 2
Fore
SplineSet
748 801 m 5
 843.5 695 l 5
 438 697 l 5
 622 508 l 5
 623 129 l 5
 498.5 0 l 5
 498.5 491 l 5
 160 804 l 5
 748 801 l 5
EndSplineSet
Validated: 1
EndChar

StartChar: uniE0C9
Encoding: 57545 57545 202
Width: 1000
VWidth: 0
Flags: HMW
LayerCount: 2
Fore
SplineSet
744 800 m 1
 839.5 695 l 1
 406 696 l 1
 584 472 l 1
 693 545 l 5
 691 63 l 1
 584 3 l 1
 584 472 l 1
 494.5 400 l 1
 158 803 l 1
 744 800 l 1
EndSplineSet
Validated: 5
EndChar

StartChar: uniE0CB
Encoding: 57547 57547 204
Width: 1000
VWidth: 0
Flags: W
HStem: 0 21G<262.754 280.077> 693 108<378 748>
VStem: 256 114<130 565> 263 111<130 565>
LayerCount: 2
Fore
SplineSet
748 801 m 1xe0
 843.5 693 l 5
 378 697 l 1
 496 568 l 1
 370 565 l 1xe0
 374 130 l 1
 263 0 l 1xd0
 256 568 l 1
 370 565 l 1
 150 804 l 1
 748 801 l 1xe0
EndSplineSet
Validated: 5
EndChar

StartChar: uniE0CD
Encoding: 57549 57549 206
Width: 1000
VWidth: 0
Flags: HM
VStem: 150.5 129.5<90 504>
LayerCount: 2
Fore
SplineSet
793.5 804 m 5
 677 659 l 5
 283 660 l 1
 284 90 l 1
 150.5 0 l 1
 150.5 504 l 1
 400 804 l 1
 793.5 804 l 5
EndSplineSet
Validated: 1
EndChar

StartChar: uniE0CE
Encoding: 57550 57550 207
Width: 1000
VWidth: 0
Flags: W
HStem: 1 21G<250 405.769> 687 113<408 751.5>
LayerCount: 2
Fore
SplineSet
842 801 m 1
 751.5 688 l 5
 408 687 l 5
 666 399 l 1
 392 1 l 1
 250 1 l 1
 505 399 l 1
 158 800 l 1
 842 801 l 1
EndSplineSet
Validated: 1
EndChar

StartChar: uniE0CF
Encoding: 57551 57551 208
Width: 1000
VWidth: 0
Flags: M
VStem: 150.5 96.5<153 690>
LayerCount: 2
Fore
SplineSet
733.5 798 m 29
 632 687 l 29
 264 690 l 25
 267 153 l 25
 150.500015259 0 l 25
 150.5 799 l 25
 733.5 798 l 29
EndSplineSet
Validated: 1
EndChar

StartChar: uniE0D1
Encoding: 57553 57553 210
Width: 1000
VWidth: 0
Flags: MW
LayerCount: 2
Fore
SplineSet
651 802 m 1
 743.5 688 l 1
 264 684 l 5
 378 574 l 5
 382 0 l 5
 268 115 l 5
 264 684 l 5
 150.5 801 l 1
 651 802 l 1
EndSplineSet
Validated: 5
EndChar

StartChar: uniE0D3
Encoding: 57555 57555 212
Width: 1000
VWidth: 0
Flags: W
HStem: 688 111<244 646.5>
VStem: 150.5 87.5<403 690> 235 96<79 403> 238 102<171.667 403>
LayerCount: 2
Fore
SplineSet
748 799 m 29xc0
 646.5 688 l 29
 244 690 l 1
 238 403 l 1xc0
 340 496 l 1x90
 331 79 l 1
 235 4 l 1xa0
 238 403 l 1
 150.5 298 l 1
 150.5 799 l 1
 748 799 l 29xc0
EndSplineSet
Validated: 5
EndChar

StartChar: uniE0D5
Encoding: 57557 57557 214
Width: 1000
VWidth: 0
Flags: W
HStem: 0 21G<476.682 652> 688 111<244 643.5>
VStem: 150.5 95.1201<400 690>
LayerCount: 2
Fore
SplineSet
745 799 m 25
 643.5 688 l 25
 244 690 l 1
 245.620111732 400 l 1
 652 0 l 1
 498.5 0 l 1
 150.500015259 319 l 5
 150.5 799 l 1
 745 799 l 25
EndSplineSet
Validated: 1
EndChar

StartChar: uniE0D7
Encoding: 57559 57559 216
Width: 1000
VWidth: 0
Flags: W
HStem: 0 21G<489.789 631> 683 119<325 647.5>
LayerCount: 2
Fore
SplineSet
749 802 m 25
 647.5 683 l 5
 325 684 l 1
 631 0 l 1
 498.5 0 l 1
 150.5 799 l 1
 749 802 l 25
EndSplineSet
Validated: 1
EndChar

StartChar: uniE0D9
Encoding: 57561 57561 218
Width: 1000
VWidth: 0
Flags: HMW
VStem: 150.5 129.5<90 541>
LayerCount: 2
Fore
SplineSet
718 801 m 1
 843.5 669 l 1
 331 671 l 1
 454 550 l 1
 376.615368102 556.503121838 262 552 280 497 c 1
 280 90 l 1
 150.500015259 0 l 1
 150.500015259 544 l 1
 172.601373798 621.065303041 181 664 331 671 c 5
 153 802 l 1
 718 801 l 1
EndSplineSet
Validated: 37
EndChar

StartChar: uniE0DB
Encoding: 57563 57563 220
Width: 1000
VWidth: 0
Flags: W
HStem: 691 109<344 736.5>
LayerCount: 2
Fore
SplineSet
838 800 m 25
 736.5 691 l 1
 344 694 l 1
 505 399 l 1
 642 399 l 1
 307 3 l 5
 165 4 l 1
 505 399 l 1
 387 399 l 1
 150.5 799 l 1
 838 800 l 25
EndSplineSet
Validated: 5
EndChar

StartChar: uniE0DC
Encoding: 57564 57564 221
Width: 1000
VWidth: 0
Flags: W
HStem: 684 120<400 759>
VStem: 498.5 119.5<91 345>
LayerCount: 2
Fore
SplineSet
843.5 804 m 1
 759 684 l 5
 284 682 l 5
 615 399 l 1
 618 91 l 1
 498.5 -15 l 1
 498.5 345 l 1
 189 605 l 1
 400 804 l 1
 843.5 804 l 1
EndSplineSet
Validated: 1
EndChar

StartChar: uniE0DE
Encoding: 57566 57566 223
Width: 1000
VWidth: 0
Flags: W
HStem: 0 21G<490.84 685> 691 110<244 741>
VStem: 248.818 109.182<295 574>
LayerCount: 2
Fore
SplineSet
741 801 m 1
 833.5 691 l 1
 244 690 l 1
 363 574 l 5
 358 295 l 1
 685 0 l 1
 514 0 l 1
 248.818359375 229 l 1
 244 690 l 1
 150.5 799 l 1
 741 801 l 1
EndSplineSet
Validated: 5
EndChar

StartChar: uniE0DF
Encoding: 57567 57567 224
Width: 1000
VWidth: 0
Flags: W
HStem: 0 21G<150.5 278.105> 694 105<384.5 737>
LayerCount: 2
Fore
SplineSet
838.5 799 m 1
 737 688 l 1
 384.5 694 l 1
 639.5 399 l 1
 507.5 399 l 1
 266 0 l 5
 150.5 0 l 1
 378 399 l 1
 507.5 399 l 1
 150.5 799 l 1
 838.5 799 l 1
EndSplineSet
Validated: 5
EndChar

StartChar: uniE0E1
Encoding: 57569 57569 226
Width: 1000
VWidth: 0
Flags: W
HStem: 694 105<394.5 727>
LayerCount: 2
Fore
SplineSet
828.5 799 m 1
 727 688 l 1
 394.5 694 l 1
 622 401 l 1
 497.5 401 l 1
 733 2 l 5
 608.5 2 l 5
 378 401 l 1
 497.5 401 l 1
 150.5 799 l 1
 828.5 799 l 1
EndSplineSet
Validated: 5
EndChar

StartChar: uniE0E7
Encoding: 57575 57575 232
Width: 1000
VWidth: 0
VStem: 498.5 114.5<105 347> 498.5 107.5<105 347>
LayerCount: 2
Fore
SplineSet
840.5 798 m 25x80
 150.500015259 801 l 1
 150.5 346 l 5
 498.5 347 l 5x80
 498.5 3 l 1
 606 105 l 1x40
 613 464 l 5
 258 465 l 5
 264 691 l 1
 745 686 l 25
 840.5 798 l 25x80
EndSplineSet
Validated: 9
EndChar

StartChar: uniE0E9
Encoding: 57577 57577 234
Width: 1000
VWidth: 0
Flags: W
HStem: 688 111<244 732.5>
VStem: 150.5 97.5<483 690>
LayerCount: 2
Fore
SplineSet
834 799 m 25
 732.5 688 l 25
 244 690 l 1
 248 483 l 1
 339 563 l 1
 704 2 l 5
 564 2 l 5
 248 483 l 1
 150.5 398 l 1
 150.5 799 l 1
 834 799 l 25
EndSplineSet
Validated: 5
EndChar

StartChar: uniE0EB
Encoding: 57579 57579 236
Width: 1000
VWidth: 0
Flags: W
HStem: 0 21G<501.375 523.15> 399 108<364 499> 687 111<244 742>
VStem: 150.5 96.5<399 690> 501.5 111.5<103 399>
LayerCount: 2
Fore
SplineSet
843.500061035 798 m 25
 742 687 l 25
 244 690 l 1
 247 399 l 17
 364 507 l 1
 501.5 505 l 5
 586 500 612.475585938 470.641601562 613 399 c 6
 613 103 l 5
 501.5 0 l 5
 499 399 l 5
 247 399 l 1
 150.5 306 l 9
 150.5 799 l 1
 843.500061035 798 l 25
EndSplineSet
Validated: 5
EndChar

StartChar: uniE0ED
Encoding: 57581 57581 238
Width: 1000
VWidth: 0
Flags: W
LayerCount: 2
Fore
SplineSet
843.500061035 798 m 25
 150.500015259 801 l 1
 421 508 l 1
 150.5 511 l 1
 150.5 0 l 1
 274 118 l 1
 277 399 l 1
 675 399 l 5
 437 682 l 1
 748 678 l 1
 843.500061035 798 l 25
EndSplineSet
Validated: 9
EndChar

StartChar: uniE0EE
Encoding: 57582 57582 239
Width: 1000
VWidth: 0
Flags: W
LayerCount: 2
Fore
SplineSet
843.5 798 m 25
 150.500015259 801 l 1
 150.5 398 l 1
 500.5 398 l 1
 150.5 0 l 1
 321 0 l 1
 763 504 l 5
 254 506 l 1
 254 684 l 1
 748 679 l 25
 843.5 798 l 25
EndSplineSet
Validated: 9
EndChar

StartChar: uniE0F0
Encoding: 57584 57584 242
Width: 1000
VWidth: 0
Flags: W
HStem: 0 21G<150.5 365.603> 285 114<399.5 491.5> 680 119<273.5 750.5>
VStem: 278.5 121<399 574>
LayerCount: 2
Fore
SplineSet
750.5 804 m 1
 843 681 l 1
 273.5 680 l 1
 397.5 574 l 1
 399.5 399 l 1
 765.5 399 l 5
 344.5 0 l 1
 150.5 0 l 1
 491.5 285 l 1
 278.5 285 l 1
 273.5 680 l 1
 160 799 l 1
 750.5 804 l 1
EndSplineSet
Validated: 5
EndChar

StartChar: uniE0F2
Encoding: 57586 57586 243
Width: 1000
VWidth: 0
Flags: W
HStem: 0 21G<498.5 518.411> 345 104<389.5 498.5> 690 109<273.5 747.5>
VStem: 278.5 111<449 584> 498.5 111.5<112 345>
LayerCount: 2
Fore
SplineSet
747.5 803 m 1
 843 691 l 1
 273.5 690 l 1
 387.5 584 l 1
 389.5 449 l 1
 609 449 l 1
 610 112 l 5
 498.5 0 l 5
 498.5 345 l 1
 278.5 345 l 1
 273.5 690 l 1
 160 799 l 1
 747.5 803 l 1
EndSplineSet
Validated: 5
EndChar

StartChar: uniE14B
Encoding: 57675 57675 291
Width: 0
VWidth: 0
Flags: W
HStem: 353 93<-243 -94>
VStem: -329 329
LayerCount: 2
Fore
SplineSet
0 447 m 25
 -94 354 l 29
 -329 353 l 29
 -243 446 l 25
 0 447 l 25
EndSplineSet
Validated: 1
EndChar

StartChar: uniE14E
Encoding: 57678 57678 295
Width: 0
VWidth: 0
Flags: W
LayerCount: 2
Fore
SplineSet
0 400 m 25
 -95 501 l 25
 -203 399 l 25
 -105 302 l 29
 0 400 l 25
EndSplineSet
Validated: 9
EndChar

StartChar: uniE150
Encoding: 57680 57680 296
Width: 0
VWidth: 0
Flags: W
LayerCount: 2
Fore
SplineSet
-236.162109375 399 m 4
 -233.840820312 320.375976562 -88.21484375 296.895507812 -23.162109375 300 c 0
 21.501953125 302.131835938 -123.36328125 347.147460938 -111.162109375 399 c 0
 -99.162109375 450 17.28125 488.27734375 -2.162109375 492 c 4
 -62.6787109375 503.586914062 -238.43359375 475.94140625 -236.162109375 399 c 4
EndSplineSet
Validated: 41
EndChar

StartChar: uniE155
Encoding: 57685 57685 303
Width: 0
VWidth: 550
Flags: W
HStem: 976 45.3779<-532.947 -441.771>
VStem: -663 259.053
LayerCount: 2
Fore
SplineSet
-663 1022.08496094 m 25
 -441.771484375 1021.37792969 l 5
 -409.274414062 976 l 5
 -532.947265625 979 l 1
 -403.947265625 852.915039062 l 1
 -490.465820312 850.96484375 l 1
 -663 1022.08496094 l 25
EndSplineSet
EndChar

StartChar: uniE124
Encoding: 57636 57636 317
Width: 0
VWidth: 0
Flags: W
LayerCount: 2
Fore
SplineSet
-155 799 m 5
 -73 729 l 5
 84 901 l 5
 -52 904 l 5
 -155 799 l 5
-156.5 802 m 1029
EndSplineSet
EndChar

StartChar: uniE125
Encoding: 57637 57637 318
Width: 0
VWidth: 0
Flags: W
LayerCount: 2
Fore
SplineSet
-175 796 m 5
 -64 700 l 5
 -52.4150390625 741.465820312 -107.6484375 857.076171875 83.5 850 c 5
 -16 955 -139 898 -175 796 c 5
EndSplineSet
EndChar

StartChar: uniE126
Encoding: 57638 57638 319
Width: 0
VWidth: 0
Flags: W
LayerCount: 2
Fore
SplineSet
-153 799 m 29
 -39 742 l 29
 -38 902 l 29
 -149 966 l 29
 -153 799 l 29
EndSplineSet
EndChar

StartChar: uniE127
Encoding: 57639 57639 320
Width: 0
VWidth: 0
Flags: W
HStem: 681 131.987<-86.4027 -12.4739>
LayerCount: 2
Fore
SplineSet
-83 681 m 1
 -147.158203125 812.987304688 l 1
 -104.107421875 813.497070312 -6.6318359375 730.33984375 35.7822265625 916.857421875 c 1
 111.599609375 793.663085938 24.83203125 689.502929688 -83 681 c 1
EndSplineSet
EndChar

StartChar: uniE128
Encoding: 57640 57640 321
Width: 0
VWidth: 0
Flags: W
HStem: 802.975 145.138
LayerCount: 2
Fore
SplineSet
-161.9609375 805.548828125 m 29
 -44.53125 802.974609375 l 29
 -112.27734375 947.927734375 l 29
 -230 948.112304688 l 29
 -161.9609375 805.548828125 l 29
EndSplineSet
EndChar

StartChar: uniE129
Encoding: 57641 57641 322
Width: 0
VWidth: 0
Flags: W
HStem: 784.87 131.987<-86.4027 -12.4739>
LayerCount: 2
Fore
SplineSet
-83 916.857421875 m 1
 -147.158203125 784.870117188 l 1
 -104.107421875 784.360351562 -6.6318359375 867.517578125 35.7822265625 681 c 1
 111.599609375 804.194335938 24.83203125 908.354492188 -83 916.857421875 c 1
EndSplineSet
EndChar

StartChar: uniE12A
Encoding: 57642 57642 323
Width: 0
VWidth: 0
Flags: W
HStem: 742 224
VStem: -488 114<799 902>
LayerCount: 2
Fore
SplineSet
843.500061035 0 m 1025,0,-1
-374 799 m 25,1,-1
 -488 742 l 25,2,-1
 -489 902 l 25,3,-1
 -378 966 l 25,4,-1
 -374 799 l 25,1,-1
EndSplineSet
EndChar

StartChar: uniE12B
Encoding: 57643 57643 324
Width: 0
VWidth: 0
Flags: W
HStem: 592.499 209.501
LayerCount: 2
Fore
SplineSet
-146.701171875 798.013671875 m 1
 0 802 l 1
 -17.298828125 762.57421875 -133.267578125 708.090820312 19.1357421875 592.499023438 c 1
 -124.366210938 574.265625 -183.447265625 696.280273438 -146.701171875 798.013671875 c 1
EndSplineSet
EndChar

StartChar: uniE12C
Encoding: 57644 57644 325
Width: 0
VWidth: 0
Flags: W
LayerCount: 2
Fore
SplineSet
422.5 -421 m 1025,0,-1
-357 798 m 29,1,-1
 -300 912 l 29,2,-1
 -460 913 l 29,3,-1
 -524 802 l 29,4,-1
 -357 798 l 29,1,-1
EndSplineSet
EndChar

StartChar: uniE12D
Encoding: 57645 57645 326
Width: 0
VWidth: 0
Flags: W
HStem: 806 114<-121.5 86.5>
VStem: -178.5 329
LayerCount: 2
Fore
SplineSet
-121.5 806 m 25
 -178.5 920 l 25
 86.5 921 l 1
 150.5 803 l 5
 -121.5 806 l 25
EndSplineSet
EndChar

StartChar: uniE12E
Encoding: 57646 57646 327
Width: 0
VWidth: 0
Flags: W
HStem: 803 117
LayerCount: 2
Fore
SplineSet
93.5 806 m 25
 150.5 920 l 25
 -114.5 921 l 1
 -178.5 803 l 5
 93.5 806 l 25
EndSplineSet
EndChar

StartChar: uniE12F
Encoding: 57647 57647 328
Width: 0
VWidth: 0
Flags: W
VStem: -459.31 107.794<784.193 913.202> -452 103.69<787.895 919>
LayerCount: 2
Fore
SplineSet
-459.309570312 782.096679688 m 5x80
 -351.515625 784.193359375 l 5x80
 -348.309570312 977.051757812 l 1
 -452 919 l 1x40
 -459.309570312 782.096679688 l 5x80
-462.422851562 783.34375 m 1029
EndSplineSet
EndChar

StartChar: uniE165
Encoding: 57701 57701 331
Width: 0
VWidth: 0
Flags: W
VStem: -770 130
LayerCount: 2
Fore
SplineSet
-770 435 m 29
 -645 615 l 29
 -640 947 l 29
 -764 803 l 29
 -770 435 l 29
EndSplineSet
Validated: 9
EndChar

StartChar: uniE166
Encoding: 57702 57702 332
Width: 0
VWidth: 0
Flags: W
HStem: 671.192 131.69<-759.742 -530.628>
LayerCount: 2
Fore
SplineSet
-441.815429688 802.8828125 m 29
 -530.627929688 671.192382812 l 29
 -842.56640625 668.063476562 l 29
 -759.7421875 801.4140625 l 29
 -441.815429688 802.8828125 l 29
EndSplineSet
EndChar

StartChar: uniE167
Encoding: 57703 57703 333
Width: 0
VWidth: 0
Flags: W
HStem: 546.85 256.013
LayerCount: 2
Fore
SplineSet
-878.2265625 546.849609375 m 29
 -729.494140625 549.672851562 l 29
 -562.021484375 802.862304688 l 29
 -709 803 l 29
 -878.2265625 546.849609375 l 29
EndSplineSet
Validated: 9
EndChar

StartChar: uniE168
Encoding: 57704 57704 334
Width: 0
VWidth: 0
Flags: W
LayerCount: 2
Fore
SplineSet
-753.877929688 426.745117188 m 29
 -680 527 l 29
 -879.806640625 800.009765625 l 29
 -997.53515625 800.631835938 l 29
 -753.877929688 426.745117188 l 29
EndSplineSet
Validated: 9
EndChar

StartChar: uniE169
Encoding: 57705 57705 335
Width: 0
VWidth: 0
Flags: W
HStem: 721 82<-826 -744>
LayerCount: 2
Fore
SplineSet
-826 803 m 29
 -556 807 l 29
 -710 593 l 29
 -822 593 l 29
 -744 723 l 29
 -889.5 721 l 29
 -826 803 l 29
EndSplineSet
Validated: 1
EndChar

StartChar: uniE16A
Encoding: 57706 57706 336
Width: 0
VWidth: 0
Flags: W
HStem: 701 99<-766 -612>
LayerCount: 2
Fore
SplineSet
-560 800 m 25
 -612 701 l 25
 -766 701 l 25
 -660 619 l 25
 -717 511 l 25
 -994 799 l 25
 -560 800 l 25
EndSplineSet
Validated: 1
EndChar

StartChar: uniE16B
Encoding: 57707 57707 337
Width: 0
VWidth: 0
Flags: W
VStem: -766 86<549 717>
LayerCount: 2
Fore
SplineSet
-680 549 m 17
 -766 435 l 1
 -760 799 l 9
 -564 685 l 25
 -587 659 l 25
 -684 717 l 25
 -680 549 l 17
EndSplineSet
Validated: 1
EndChar

StartChar: uniE16C
Encoding: 57708 57708 338
Width: 0
VWidth: 0
Flags: W
VStem: -820 99<559 673.75> -812 96<559 709>
LayerCount: 2
Fore
SplineSet
-820 427 m 1x80
 -721 559 l 1x80
 -716 803 l 1
 -932 677 l 25
 -909 651 l 25
 -812 709 l 1x40
 -820 427 l 1x80
EndSplineSet
Validated: 9
EndChar

StartChar: uniE16D
Encoding: 57709 57709 339
Width: 0
VWidth: 0
Flags: W
HStem: 576.879 224.305
LayerCount: 2
Fore
SplineSet
-838.69140625 800.024414062 m 25
 -996.4609375 576.87890625 l 25
 -732.837890625 580.732421875 l 25
 -668.75390625 672.5859375 l 25
 -820 673 l 25
 -735.107421875 801.18359375 l 25
 -838.69140625 800.024414062 l 25
EndSplineSet
Validated: 9
EndChar

StartChar: uniE16E
Encoding: 57710 57710 340
Width: 0
VWidth: 0
Flags: W
HStem: 583.708 91.8535<-925.854 -838.691>
VStem: -989.938 327.707
LayerCount: 2
Fore
SplineSet
-820 803 m 25
 -662.23046875 579.854492188 l 25
 -925.853515625 583.708007812 l 25
 -989.9375 675.561523438 l 25
 -838.69140625 675.975585938 l 25
 -923.583984375 804.159179688 l 25
 -820 803 l 25
EndSplineSet
Validated: 1
EndChar

StartChar: uniE16F
Encoding: 57711 57711 341
Width: 0
VWidth: 0
Flags: W
VStem: -824 143
LayerCount: 2
Fore
SplineSet
-824 399 m 5
 -698 579 l 5
 -681 1019 l 5
 -805 875 l 5
 -824 399 l 5
EndSplineSet
Validated: 9
EndChar

StartChar: uniE170
Encoding: 57712 57712 342
Width: 0
VWidth: 0
Flags: W
LayerCount: 2
Fore
SplineSet
-972 509 m 5
 -828.950195312 512.211914062 l 5
 -484 1019 l 1
 -628 1012 l 1
 -972 509 l 5
EndSplineSet
Validated: 9
EndChar

StartChar: uniE171
Encoding: 57713 57713 343
Width: 0
VWidth: 0
Flags: W
LayerCount: 2
Fore
SplineSet
-753.877929688 426.745117188 m 29
 -680 527 l 29
 -885.806640625 950.009765625 l 29
 -1003.53515625 950.631835938 l 29
 -753.877929688 426.745117188 l 29
EndSplineSet
Validated: 9
EndChar

StartChar: uniE172
Encoding: 57714 57714 344
Width: 0
VWidth: 0
Flags: W
LayerCount: 2
Fore
SplineSet
-720 475 m 1
 -624 627 l 1
 -716.455078125 783.600585938 -836 799 -996 795 c 1
 -795.759765625 767.439453125 -756 687 -720 475 c 1
EndSplineSet
Validated: 41
EndChar

StartChar: uniE173
Encoding: 57715 57715 345
Width: 0
VWidth: 0
Flags: W
VStem: -988 326
LayerCount: 2
Fore
SplineSet
-662 577 m 1
 -734 467 l 1
 -890.600585938 559.455078125 -992 699 -988 859 c 1
 -960.439453125 658.759765625 -680 583 -662 577 c 1
-205 905 m 1025
EndSplineSet
Validated: 33
EndChar

StartChar: uniE174
Encoding: 57716 57716 346
Width: 0
VWidth: 0
Flags: W
HStem: 671.192 131.69<-991.742 -830.628>
LayerCount: 2
Fore
SplineSet
-741.815429688 802.8828125 m 25
 -830.627929688 671.192382812 l 25
 -1074.56640625 668.063476562 l 25
 -991.7421875 801.4140625 l 25
 -741.815429688 802.8828125 l 25
-848.2265625 546.849609375 m 25
 -699.494140625 549.672851562 l 25
 -532.021484375 802.862304688 l 25
 -679 803 l 25
 -848.2265625 546.849609375 l 25
EndSplineSet
Validated: 9
EndChar

StartChar: uniE175
Encoding: 57717 57717 347
Width: 0
VWidth: 0
Flags: W
VStem: -770 130
LayerCount: 2
Fore
SplineSet
-923.5 459 m 29
 -845 391 l 29
 -920 319 l 29
 -999 386 l 29
 -923.5 459 l 29
EndSplineSet
Refer: 331 57701 N 1 0 0 1 0 0 2
Validated: 9
EndChar

StartChar: uniE176
Encoding: 57718 57718 348
Width: 0
VWidth: 0
Flags: W
HStem: 671.192 131.69<-759.742 -530.628>
LayerCount: 2
Fore
SplineSet
-684 586 m 29
 -605.5 518 l 29
 -680.5 446 l 29
 -759.5 513 l 29
 -684 586 l 29
EndSplineSet
Refer: 332 57702 N 1 0 0 1 0 0 2
EndChar

StartChar: uniE177
Encoding: 57719 57719 349
Width: 0
VWidth: 0
Flags: W
HStem: 546.85 256.013
LayerCount: 2
Fore
SplineSet
-849.5 475 m 29
 -771 407 l 29
 -846 335 l 29
 -925 402 l 29
 -849.5 475 l 29
EndSplineSet
Refer: 333 57703 N 1 0 0 1 0 0 2
Validated: 9
EndChar

StartChar: uniE178
Encoding: 57720 57720 350
Width: 0
VWidth: 0
Flags: W
LayerCount: 2
Fore
SplineSet
-923.5 459 m 29
 -845 391 l 29
 -920 319 l 29
 -999 386 l 29
 -923.5 459 l 29
EndSplineSet
Refer: 334 57704 N 1 0 0 1 0 0 2
Validated: 9
EndChar

StartChar: uniE179
Encoding: 57721 57721 351
Width: 0
VWidth: 0
Flags: W
HStem: 721 82<-826 -744>
LayerCount: 2
Fore
SplineSet
-874 558 m 29
 -795.5 490 l 29
 -870.5 418 l 29
 -949.5 485 l 29
 -874 558 l 29
EndSplineSet
Refer: 335 57705 N 1 0 0 1 0 0 2
Validated: 1
EndChar

StartChar: uniE17A
Encoding: 57722 57722 352
Width: 0
VWidth: 0
Flags: W
HStem: 701 99<-766 -612>
LayerCount: 2
Fore
SplineSet
-878 514 m 29
 -799.5 446 l 29
 -874.5 374 l 29
 -953.5 441 l 29
 -878 514 l 29
EndSplineSet
Refer: 336 57706 N 1 0 0 1 0 0 2
Validated: 1
EndChar

StartChar: uniE17B
Encoding: 57723 57723 353
Width: 0
VWidth: 0
Flags: W
VStem: -766 86<549 717>
LayerCount: 2
Fore
SplineSet
-885 469 m 29
 -806.5 401 l 29
 -881.5 329 l 29
 -960.5 396 l 29
 -885 469 l 29
EndSplineSet
Refer: 337 57707 N 1 0 0 1 0 0 2
Validated: 1
EndChar

StartChar: uniE17C
Encoding: 57724 57724 354
Width: 0
VWidth: 0
Flags: W
VStem: -820 99<559 673.75> -812 96<559 709>
LayerCount: 2
Fore
SplineSet
-933 478 m 29x00
 -854.5 410 l 29
 -929.5 338 l 29
 -1008.5 405 l 29
 -933 478 l 29x00
EndSplineSet
Refer: 338 57708 N 1 0 0 1 0 0 2
Validated: 9
EndChar

StartChar: uniE17D
Encoding: 57725 57725 355
Width: 0
VWidth: 0
Flags: W
HStem: 576.879 224.305
LayerCount: 2
Fore
SplineSet
-885 538 m 29
 -806.5 470 l 29
 -881.5 398 l 29
 -960.5 465 l 29
 -885 538 l 29
EndSplineSet
Refer: 339 57709 N 1 0 0 1 0 0 2
Validated: 9
EndChar

StartChar: uniE17E
Encoding: 57726 57726 356
Width: 0
VWidth: 0
Flags: W
HStem: 583.708 91.8535<-925.854 -838.691>
VStem: -989.938 327.707
LayerCount: 2
Fore
SplineSet
-867 532 m 29
 -788.5 464 l 29
 -863.5 392 l 29
 -942.5 459 l 29
 -867 532 l 29
EndSplineSet
Refer: 340 57710 N 1 0 0 1 0 0 2
Validated: 1
EndChar

StartChar: uniE17F
Encoding: 57727 57727 357
Width: 0
VWidth: 0
Flags: W
VStem: -824 143
LayerCount: 2
Fore
SplineSet
-923.5 459 m 29
 -845 391 l 29
 -920 319 l 29
 -999 386 l 29
 -923.5 459 l 29
EndSplineSet
Refer: 341 57711 N 1 0 0 1 0 0 2
Validated: 9
EndChar

StartChar: uniE180
Encoding: 57728 57728 358
Width: 0
VWidth: 0
Flags: W
LayerCount: 2
Fore
SplineSet
-924.5 437 m 29
 -846 369 l 29
 -921 297 l 29
 -1000 364 l 29
 -924.5 437 l 29
EndSplineSet
Refer: 342 57712 N 1 0 0 1 0 0 2
Validated: 9
EndChar

StartChar: uniE181
Encoding: 57729 57729 359
Width: 0
VWidth: 0
Flags: W
LayerCount: 2
Fore
SplineSet
-923.5 459 m 29
 -845 391 l 29
 -920 319 l 29
 -999 386 l 29
 -923.5 459 l 29
EndSplineSet
Refer: 343 57713 N 1 0 0 1 0 0 2
Validated: 9
EndChar

StartChar: uniE182
Encoding: 57730 57730 360
Width: 0
VWidth: 0
Flags: W
LayerCount: 2
Fore
SplineSet
-914 598 m 29
 -835.5 530 l 29
 -910.5 458 l 29
 -989.5 525 l 29
 -914 598 l 29
EndSplineSet
Refer: 344 57714 N 1 0 0 1 0 0 2
Validated: 9
EndChar

StartChar: uniE183
Encoding: 57731 57731 361
Width: 0
VWidth: 0
Flags: W
VStem: -988 326
LayerCount: 2
Fore
SplineSet
-926 499 m 29
 -847.5 431 l 29
 -922.5 359 l 29
 -1001.5 426 l 29
 -926 499 l 29
EndSplineSet
Refer: 345 57715 N 1 0 0 1 0 0 2
Validated: 1
EndChar

StartChar: uniE184
Encoding: 57732 57732 362
Width: 0
VWidth: 0
Flags: W
HStem: 671.192 131.69<-991.742 -830.628>
LayerCount: 2
Fore
SplineSet
-880.5 475 m 29
 -802 407 l 29
 -877 335 l 29
 -956 402 l 29
 -880.5 475 l 29
EndSplineSet
Refer: 346 57716 N 1 0 0 1 0 0 2
Validated: 9
EndChar

StartChar: uniE225
Encoding: 57893 57893 523
Width: 0
VWidth: -49
Flags: HW
HStem: -147 78<-482.837 -330.288>
VStem: -287.837 6<-231 -93.5615>
LayerCount: 2
Fore
SplineSet
-482.836914062 -147 m 5
 -543.836914062 -69 l 5
 -473.193359375 -70.7138671875 -245.836914062 -50 -281.836914062 -185 c 5
 -287.836914062 -231 l 21
 -300.544921875 -93.5615234375 -432.986328125 -139.767578125 -482.836914062 -147 c 5
EndSplineSet
EndChar

StartChar: uniE22E
Encoding: 57902 57902 559
Width: 1000
VWidth: 0
Flags: W
LayerCount: 2
Fore
SplineSet
444.377929688 1 m 1
 551.877929688 1 l 29
 552.870117188 402 l 5
 443.370117188 402 l 1
 444.377929688 1 l 1
445.370117188 402 m 1
 552.870117188 402 l 29
 558.209960938 801 l 5
 445.709960938 801 l 1
 445.370117188 402 l 1
EndSplineSet
EndChar

StartChar: uniE22F
Encoding: 57903 57903 560
Width: 1000
VWidth: 0
Flags: W
VStem: 155 183
LayerCount: 2
Fore
SplineSet
247 398 m 29
 338 305 l 29
 247 211 l 29
 155 307 l 29
 247 398 l 29
246 587 m 29
 337 494 l 29
 246 400 l 29
 154 496 l 29
 246 587 l 29
EndSplineSet
EndChar

StartChar: uniE230
Encoding: 57904 57904 561
Width: 1000
VWidth: 0
Flags: W
VStem: 154 183
LayerCount: 2
Fore
SplineSet
246 678 m 25
 337 585 l 25
 246 491 l 25
 154 587 l 25
 246 678 l 25
247 303 m 29
 338 210 l 29
 247 116 l 29
 155 212 l 29
 247 303 l 29
246 490 m 25
 337 397 l 25
 246 303 l 25
 154 399 l 25
 246 490 l 25
EndSplineSet
EndChar
